<svg width="46" height="46" viewBox="0 0 46 46" fill="none" xmlns="http://www.w3.org/2000/svg">
<rect width="46" height="46" fill="#F5F5F5"/>
<circle cx="23" cy="23" r="23" fill="#D9D9D9"/>
<g filter="url(#filter0_d_0_1)">
<path fill-rule="evenodd" clip-rule="evenodd" d="M21 6C20.4477 6 20 6.44772 20 7V10.6028C20 11.0591 19.6896 11.4533 19.2561 11.5956C18.5793 11.8176 17.929 12.0982 17.3113 12.4314C16.9024 12.652 16.3926 12.5996 16.0625 12.2728L13.548 9.78355C13.1555 9.395 12.5224 9.3982 12.1338 9.79069L9.31969 12.6334C8.93114 13.0258 8.93433 13.659 9.32683 14.0475L11.9605 16.6547C12.2789 16.97 12.3448 17.4568 12.1527 17.8617C11.9391 18.3118 11.7527 18.7773 11.5956 19.2561C11.4533 19.6896 11.0591 20 10.6028 20L7 20C6.44772 20 6 20.4477 6 21V25C6 25.5523 6.44772 26 7 26H10.6028C11.0591 26 11.4533 26.3104 11.5956 26.7439C11.8026 27.3749 12.0605 27.9827 12.3644 28.5627C12.5788 28.9718 12.5224 29.4776 12.1959 29.8041L9.66548 32.3345C9.27495 32.725 9.27495 33.3582 9.66548 33.7487L12.4939 36.5772C12.8844 36.9677 13.5176 36.9677 13.9081 36.5772L16.5176 33.9677C16.8364 33.6488 17.3273 33.5868 17.7323 33.785C18.2224 34.0248 18.7312 34.2322 19.2561 34.4044C19.6896 34.5467 20 34.9409 20 35.3972V39C20 39.5523 20.4477 40 21 40H25C25.5523 40 26 39.5523 26 39V35.3972C26 34.9409 26.3104 34.5467 26.7439 34.4044C27.2615 34.2346 27.7636 34.0305 28.2475 33.7949C28.6504 33.5987 29.1378 33.6596 29.4563 33.9748L32.0682 36.5605C32.4607 36.949 33.0938 36.9458 33.4824 36.5533L36.2965 33.7107C36.685 33.3182 36.6818 32.685 36.2893 32.2965L33.7968 29.829C33.4666 29.5021 33.4091 28.9929 33.6255 28.5818C33.9338 27.9961 34.1951 27.3818 34.4044 26.7439C34.5467 26.3104 34.9409 26 35.3972 26H39C39.5523 26 40 25.5523 40 25V21C40 20.4477 39.5523 20 39 20L35.3972 20C34.9409 20 34.5467 19.6896 34.4044 19.2561C34.2322 18.7312 34.0248 18.2224 33.785 17.7323C33.5868 17.3273 33.6488 16.8364 33.9677 16.5176L36.5355 13.9497C36.9261 13.5592 36.9261 12.9261 36.5355 12.5355L33.7071 9.70711C33.3166 9.31658 32.6834 9.31658 32.2929 9.70711L29.8041 12.1959C29.4776 12.5224 28.9718 12.5788 28.5627 12.3644C27.9827 12.0605 27.3749 11.8026 26.7439 11.5956C26.3104 11.4533 26 11.0591 26 10.6028V7C26 6.44772 25.5523 6 25 6H21ZM23 30C26.866 30 30 26.866 30 23C30 19.134 26.866 16 23 16C19.134 16 16 19.134 16 23C16 26.866 19.134 30 23 30Z" fill="white"/>
</g>
<defs>
<filter id="filter0_d_0_1" x="5" y="6" width="35" height="35" filterUnits="userSpaceOnUse" color-interpolation-filters="sRGB">
<feFlood flood-opacity="0" result="BackgroundImageFix"/>
<feColorMatrix in="SourceAlpha" type="matrix" values="0 0 0 0 0 0 0 0 0 0 0 0 0 0 0 0 0 0 127 0" result="hardAlpha"/>
<feOffset dx="-1" dy="1"/>
<feComposite in2="hardAlpha" operator="out"/>
<feColorMatrix type="matrix" values="0 0 0 0 0 0 0 0 0 0 0 0 0 0 0 0 0 0 0.35 0"/>
<feBlend mode="normal" in2="BackgroundImageFix" result="effect1_dropShadow_0_1"/>
<feBlend mode="normal" in="SourceGraphic" in2="effect1_dropShadow_0_1" result="shape"/>
</filter>
</defs>
</svg>
