<svg width="212" height="162" viewBox="0 0 212 162" fill="none" xmlns="http://www.w3.org/2000/svg">
<rect y="91" width="210" height="70" fill="#C4C4C4"/>
<line x1="52.5" y1="91" x2="52.5" y2="161" stroke="black"/>
<line x1="105.5" y1="91" x2="105.5" y2="161" stroke="black"/>
<line x1="158.5" y1="91" x2="158.5" y2="161" stroke="black"/>
<path d="M12.9971 38H11.3711V24.5H12.9971V38ZM15.1768 33.1572C15.1768 32.2256 15.3584 31.3877 15.7217 30.6436C16.0908 29.8994 16.6006 29.3252 17.251 28.9209C17.9072 28.5166 18.6543 28.3145 19.4922 28.3145C20.7871 28.3145 21.833 28.7627 22.6299 29.6592C23.4326 30.5557 23.834 31.748 23.834 33.2363V33.3506C23.834 34.2764 23.6553 35.1084 23.2979 35.8467C22.9463 36.5791 22.4395 37.1504 21.7773 37.5605C21.1211 37.9707 20.3652 38.1758 19.5098 38.1758C18.2207 38.1758 17.1748 37.7275 16.3721 36.8311C15.5752 35.9346 15.1768 34.748 15.1768 33.2715V33.1572ZM16.8115 33.3506C16.8115 34.4053 17.0547 35.252 17.541 35.8906C18.0332 36.5293 18.6895 36.8486 19.5098 36.8486C20.3359 36.8486 20.9922 36.5264 21.4785 35.8818C21.9648 35.2314 22.208 34.3232 22.208 33.1572C22.208 32.1143 21.959 31.2705 21.4609 30.626C20.9688 29.9756 20.3125 29.6504 19.4922 29.6504C18.6895 29.6504 18.042 29.9697 17.5498 30.6084C17.0576 31.2471 16.8115 32.1611 16.8115 33.3506ZM34.293 35.7588L36.1211 28.4902H37.7471L34.9785 38H33.6602L31.3486 30.793L29.0986 38H27.7803L25.0205 28.4902H26.6377L28.5098 35.6094L30.7246 28.4902H32.0342L34.293 35.7588Z" fill="white"/>
<path d="M63.7686 7.49023L63.8213 8.68555C64.5479 7.77148 65.4971 7.31445 66.6689 7.31445C68.6787 7.31445 69.6924 8.44824 69.71 10.7158V17H68.084V10.707C68.0781 10.0215 67.9199 9.51465 67.6094 9.18652C67.3047 8.8584 66.8271 8.69434 66.1768 8.69434C65.6494 8.69434 65.1865 8.83496 64.7881 9.11621C64.3896 9.39746 64.0791 9.7666 63.8564 10.2236V17H62.2305V7.49023H63.7686ZM76.1084 17.1758C74.8193 17.1758 73.7705 16.7539 72.9619 15.9102C72.1533 15.0605 71.749 13.9268 71.749 12.5088V12.21C71.749 11.2666 71.9277 10.4258 72.2852 9.6875C72.6484 8.94336 73.1523 8.36328 73.7969 7.94727C74.4473 7.52539 75.1504 7.31445 75.9062 7.31445C77.1426 7.31445 78.1035 7.72168 78.7891 8.53613C79.4746 9.35059 79.8174 10.5166 79.8174 12.0342V12.7109H73.375C73.3984 13.6484 73.6709 14.4072 74.1924 14.9873C74.7197 15.5615 75.3877 15.8486 76.1963 15.8486C76.7705 15.8486 77.2568 15.7314 77.6553 15.4971C78.0537 15.2627 78.4023 14.9521 78.7012 14.5654L79.6943 15.3389C78.8975 16.5635 77.7021 17.1758 76.1084 17.1758ZM75.9062 8.65039C75.25 8.65039 74.6992 8.89062 74.2539 9.37109C73.8086 9.8457 73.5332 10.5137 73.4277 11.375H78.1914V11.252C78.1445 10.4258 77.9219 9.78711 77.5234 9.33594C77.125 8.87891 76.5859 8.65039 75.9062 8.65039ZM90.127 14.7588L91.9551 7.49023H93.5811L90.8125 17H89.4941L87.1826 9.79297L84.9326 17H83.6143L80.8545 7.49023H82.4717L84.3438 14.6094L86.5586 7.49023H87.8682L90.127 14.7588ZM63.8564 29.6416C64.5771 28.7568 65.5146 28.3145 66.6689 28.3145C68.6787 28.3145 69.6924 29.4482 69.71 31.7158V38H68.084V31.707C68.0781 31.0215 67.9199 30.5146 67.6094 30.1865C67.3047 29.8584 66.8271 29.6943 66.1768 29.6943C65.6494 29.6943 65.1865 29.835 64.7881 30.1162C64.3896 30.3975 64.0791 30.7666 63.8564 31.2236V38H62.2305V24.5H63.8564V29.6416ZM73.9111 38H72.2852V28.4902H73.9111V38ZM72.1533 25.9678C72.1533 25.7041 72.2324 25.4814 72.3906 25.2998C72.5547 25.1182 72.7949 25.0273 73.1113 25.0273C73.4277 25.0273 73.668 25.1182 73.832 25.2998C73.9961 25.4814 74.0781 25.7041 74.0781 25.9678C74.0781 26.2314 73.9961 26.4512 73.832 26.627C73.668 26.8027 73.4277 26.8906 73.1113 26.8906C72.7949 26.8906 72.5547 26.8027 72.3906 26.627C72.2324 26.4512 72.1533 26.2314 72.1533 25.9678ZM76.1348 33.166C76.1348 31.6836 76.4775 30.5059 77.1631 29.6328C77.8486 28.7539 78.7568 28.3145 79.8877 28.3145C81.0479 28.3145 81.9531 28.7246 82.6035 29.5449L82.6826 28.4902H84.168V37.7715C84.168 39.002 83.8018 39.9717 83.0693 40.6807C82.3428 41.3896 81.3643 41.7441 80.1338 41.7441C79.4482 41.7441 78.7773 41.5977 78.1211 41.3047C77.4648 41.0117 76.9639 40.6104 76.6182 40.1006L77.4619 39.125C78.1592 39.9863 79.0117 40.417 80.0195 40.417C80.8105 40.417 81.4258 40.1943 81.8652 39.749C82.3105 39.3037 82.5332 38.6768 82.5332 37.8682V37.0508C81.8828 37.8008 80.9951 38.1758 79.8701 38.1758C78.7568 38.1758 77.8545 37.7275 77.1631 36.8311C76.4775 35.9346 76.1348 34.7129 76.1348 33.166ZM77.7695 33.3506C77.7695 34.4229 77.9893 35.2666 78.4287 35.8818C78.8682 36.4912 79.4834 36.7959 80.2744 36.7959C81.2998 36.7959 82.0527 36.3301 82.5332 35.3984V31.0566C82.0352 30.1484 81.2881 29.6943 80.292 29.6943C79.501 29.6943 78.8828 30.002 78.4375 30.6172C77.9922 31.2324 77.7695 32.1436 77.7695 33.3506ZM88.2549 29.6416C88.9756 28.7568 89.9131 28.3145 91.0674 28.3145C93.0771 28.3145 94.0908 29.4482 94.1084 31.7158V38H92.4824V31.707C92.4766 31.0215 92.3184 30.5146 92.0078 30.1865C91.7031 29.8584 91.2256 29.6943 90.5752 29.6943C90.0479 29.6943 89.585 29.835 89.1865 30.1162C88.7881 30.3975 88.4775 30.7666 88.2549 31.2236V38H86.6289V24.5H88.2549V29.6416Z" fill="white"/>
<path d="M23.6464 82.3536C23.8417 82.5488 24.1583 82.5488 24.3536 82.3536L27.5355 79.1716C27.7308 78.9763 27.7308 78.6597 27.5355 78.4645C27.3403 78.2692 27.0237 78.2692 26.8284 78.4645L24 81.2929L21.1716 78.4645C20.9763 78.2692 20.6597 78.2692 20.4645 78.4645C20.2692 78.6597 20.2692 78.9763 20.4645 79.1716L23.6464 82.3536ZM23.5 50L23.5 82H24.5L24.5 50H23.5Z" fill="white"/>
<path d="M77.6464 82.3536C77.8417 82.5488 78.1583 82.5488 78.3536 82.3536L81.5355 79.1716C81.7308 78.9763 81.7308 78.6597 81.5355 78.4645C81.3403 78.2692 81.0237 78.2692 80.8284 78.4645L78 81.2929L75.1716 78.4645C74.9763 78.2692 74.6597 78.2692 74.4645 78.4645C74.2692 78.6597 74.2692 78.9763 74.4645 79.1716L77.6464 82.3536ZM77.5 50V82H78.5V50H77.5Z" fill="white"/>
<line x1="105.399" y1="90.6982" x2="158.399" y2="160.698" stroke="black"/>
<line x1="158.399" y1="90.6982" x2="211.399" y2="160.698" stroke="black"/>
<line x1="158.399" y1="91.3018" x2="105.399" y2="161.302" stroke="black"/>
<line x1="211.399" y1="91.3018" x2="158.399" y2="161.302" stroke="black"/>
</svg>
