<svg width="376" height="296" viewBox="0 0 376 296" fill="none" xmlns="http://www.w3.org/2000/svg">
<line x1="195.5" y1="2.18557e-08" x2="195.5" y2="296" stroke="white"/>
<path d="M105.256 24.2959C103.809 23.8799 102.754 23.3701 102.092 22.7666C101.436 22.1572 101.107 21.4072 101.107 20.5166C101.107 19.5088 101.509 18.6768 102.312 18.0205C103.12 17.3584 104.169 17.0273 105.458 17.0273C106.337 17.0273 107.119 17.1973 107.805 17.5371C108.496 17.877 109.029 18.3457 109.404 18.9434C109.785 19.541 109.976 20.1943 109.976 20.9033H108.279C108.279 20.1299 108.033 19.5234 107.541 19.084C107.049 18.6387 106.354 18.416 105.458 18.416C104.626 18.416 103.976 18.6006 103.507 18.9697C103.044 19.333 102.812 19.8398 102.812 20.4902C102.812 21.0117 103.032 21.4541 103.472 21.8174C103.917 22.1748 104.67 22.5029 105.73 22.8018C106.797 23.1006 107.629 23.4316 108.227 23.7949C108.83 24.1523 109.275 24.5713 109.562 25.0518C109.855 25.5322 110.002 26.0977 110.002 26.748C110.002 27.7852 109.598 28.6172 108.789 29.2441C107.98 29.8652 106.899 30.1758 105.546 30.1758C104.667 30.1758 103.847 30.0088 103.085 29.6748C102.323 29.335 101.734 28.8721 101.318 28.2861C100.908 27.7002 100.703 27.0352 100.703 26.291H102.399C102.399 27.0645 102.684 27.6768 103.252 28.1279C103.826 28.5732 104.591 28.7959 105.546 28.7959C106.437 28.7959 107.119 28.6143 107.594 28.251C108.068 27.8877 108.306 27.3926 108.306 26.7656C108.306 26.1387 108.086 25.6553 107.646 25.3154C107.207 24.9697 106.41 24.6299 105.256 24.2959ZM113.685 30H112.059V20.4902H113.685V30ZM111.927 17.9678C111.927 17.7041 112.006 17.4814 112.164 17.2998C112.328 17.1182 112.568 17.0273 112.885 17.0273C113.201 17.0273 113.441 17.1182 113.605 17.2998C113.77 17.4814 113.852 17.7041 113.852 17.9678C113.852 18.2314 113.77 18.4512 113.605 18.627C113.441 18.8027 113.201 18.8906 112.885 18.8906C112.568 18.8906 112.328 18.8027 112.164 18.627C112.006 18.4512 111.927 18.2314 111.927 17.9678ZM117.824 20.4902L117.868 21.5449C118.565 20.7246 119.506 20.3145 120.689 20.3145C122.02 20.3145 122.925 20.8242 123.405 21.8438C123.722 21.3867 124.132 21.0176 124.636 20.7363C125.146 20.4551 125.746 20.3145 126.438 20.3145C128.523 20.3145 129.584 21.4189 129.619 23.6279V30H127.993V23.7246C127.993 23.0449 127.838 22.5381 127.527 22.2041C127.217 21.8643 126.695 21.6943 125.963 21.6943C125.359 21.6943 124.858 21.876 124.46 22.2393C124.062 22.5967 123.83 23.0801 123.766 23.6895V30H122.131V23.7686C122.131 22.3857 121.454 21.6943 120.101 21.6943C119.034 21.6943 118.305 22.1484 117.912 23.0566V30H116.286V20.4902H117.824ZM140.113 25.3506C140.113 26.7979 139.782 27.9639 139.12 28.8486C138.458 29.7334 137.562 30.1758 136.431 30.1758C135.276 30.1758 134.368 29.8096 133.706 29.0771V33.6562H132.08V20.4902H133.565L133.645 21.5449C134.307 20.7246 135.227 20.3145 136.404 20.3145C137.547 20.3145 138.449 20.7451 139.111 21.6064C139.779 22.4678 140.113 23.666 140.113 25.2012V25.3506ZM138.487 25.166C138.487 24.0938 138.259 23.2471 137.802 22.626C137.345 22.0049 136.718 21.6943 135.921 21.6943C134.937 21.6943 134.198 22.1309 133.706 23.0039V27.5479C134.192 28.415 134.937 28.8486 135.938 28.8486C136.718 28.8486 137.336 28.541 137.793 27.9258C138.256 27.3047 138.487 26.3848 138.487 25.166ZM143.954 30H142.328V16.5H143.954V30ZM150.511 30.1758C149.222 30.1758 148.173 29.7539 147.364 28.9102C146.556 28.0605 146.151 26.9268 146.151 25.5088V25.21C146.151 24.2666 146.33 23.4258 146.688 22.6875C147.051 21.9434 147.555 21.3633 148.199 20.9473C148.85 20.5254 149.553 20.3145 150.309 20.3145C151.545 20.3145 152.506 20.7217 153.191 21.5361C153.877 22.3506 154.22 23.5166 154.22 25.0342V25.7109H147.777C147.801 26.6484 148.073 27.4072 148.595 27.9873C149.122 28.5615 149.79 28.8486 150.599 28.8486C151.173 28.8486 151.659 28.7314 152.058 28.4971C152.456 28.2627 152.805 27.9521 153.104 27.5654L154.097 28.3389C153.3 29.5635 152.104 30.1758 150.511 30.1758ZM150.309 21.6504C149.652 21.6504 149.102 21.8906 148.656 22.3711C148.211 22.8457 147.936 23.5137 147.83 24.375H152.594V24.252C152.547 23.4258 152.324 22.7871 151.926 22.3359C151.527 21.8789 150.988 21.6504 150.309 21.6504ZM106.768 48.4775C106.768 48.0381 106.601 47.6982 106.267 47.458C105.938 47.2119 105.361 47.001 104.535 46.8252C103.715 46.6494 103.062 46.4385 102.575 46.1924C102.095 45.9463 101.737 45.6533 101.503 45.3135C101.274 44.9736 101.16 44.5693 101.16 44.1006C101.16 43.3213 101.488 42.6621 102.145 42.123C102.807 41.584 103.65 41.3145 104.676 41.3145C105.754 41.3145 106.627 41.5928 107.295 42.1494C107.969 42.7061 108.306 43.418 108.306 44.2852H106.671C106.671 43.8398 106.48 43.4561 106.1 43.1338C105.725 42.8115 105.25 42.6504 104.676 42.6504C104.084 42.6504 103.621 42.7793 103.287 43.0371C102.953 43.2949 102.786 43.6318 102.786 44.0479C102.786 44.4404 102.941 44.7363 103.252 44.9355C103.562 45.1348 104.122 45.3252 104.931 45.5068C105.745 45.6885 106.404 45.9053 106.908 46.1572C107.412 46.4092 107.784 46.7139 108.024 47.0713C108.271 47.4229 108.394 47.8535 108.394 48.3633C108.394 49.2129 108.054 49.8955 107.374 50.4111C106.694 50.9209 105.812 51.1758 104.729 51.1758C103.967 51.1758 103.293 51.041 102.707 50.7715C102.121 50.502 101.661 50.127 101.327 49.6465C100.999 49.1602 100.835 48.6357 100.835 48.0732H102.461C102.49 48.6182 102.707 49.0518 103.111 49.374C103.521 49.6904 104.061 49.8486 104.729 49.8486C105.344 49.8486 105.836 49.7256 106.205 49.4795C106.58 49.2275 106.768 48.8936 106.768 48.4775ZM114.458 51.1758C113.169 51.1758 112.12 50.7539 111.312 49.9102C110.503 49.0605 110.099 47.9268 110.099 46.5088V46.21C110.099 45.2666 110.277 44.4258 110.635 43.6875C110.998 42.9434 111.502 42.3633 112.146 41.9473C112.797 41.5254 113.5 41.3145 114.256 41.3145C115.492 41.3145 116.453 41.7217 117.139 42.5361C117.824 43.3506 118.167 44.5166 118.167 46.0342V46.7109H111.725C111.748 47.6484 112.021 48.4072 112.542 48.9873C113.069 49.5615 113.737 49.8486 114.546 49.8486C115.12 49.8486 115.606 49.7314 116.005 49.4971C116.403 49.2627 116.752 48.9521 117.051 48.5654L118.044 49.3389C117.247 50.5635 116.052 51.1758 114.458 51.1758ZM114.256 42.6504C113.6 42.6504 113.049 42.8906 112.604 43.3711C112.158 43.8457 111.883 44.5137 111.777 45.375H116.541V45.252C116.494 44.4258 116.271 43.7871 115.873 43.3359C115.475 42.8789 114.936 42.6504 114.256 42.6504ZM125.928 51C125.834 50.8125 125.758 50.4785 125.699 49.998C124.943 50.7832 124.041 51.1758 122.992 51.1758C122.055 51.1758 121.284 50.9121 120.681 50.3848C120.083 49.8516 119.784 49.1777 119.784 48.3633C119.784 47.373 120.159 46.6055 120.909 46.0605C121.665 45.5098 122.726 45.2344 124.091 45.2344H125.673V44.4873C125.673 43.9189 125.503 43.4678 125.163 43.1338C124.823 42.7939 124.322 42.624 123.66 42.624C123.08 42.624 122.594 42.7705 122.201 43.0635C121.809 43.3564 121.612 43.7109 121.612 44.127H119.978C119.978 43.6523 120.145 43.1953 120.479 42.7559C120.818 42.3105 121.275 41.959 121.85 41.7012C122.43 41.4434 123.065 41.3145 123.757 41.3145C124.853 41.3145 125.711 41.5898 126.332 42.1406C126.953 42.6855 127.275 43.4385 127.299 44.3994V48.7764C127.299 49.6494 127.41 50.3438 127.633 50.8594V51H125.928ZM123.229 49.7607C123.739 49.7607 124.223 49.6289 124.68 49.3652C125.137 49.1016 125.468 48.7588 125.673 48.3369V46.3857H124.398C122.406 46.3857 121.41 46.9688 121.41 48.1348C121.41 48.6445 121.58 49.043 121.92 49.3301C122.26 49.6172 122.696 49.7607 123.229 49.7607ZM134.444 42.9492C134.198 42.9082 133.932 42.8877 133.645 42.8877C132.578 42.8877 131.854 43.3418 131.474 44.25V51H129.848V41.4902H131.43L131.456 42.5889C131.989 41.7393 132.745 41.3145 133.724 41.3145C134.04 41.3145 134.28 41.3555 134.444 41.4375V42.9492ZM139.586 49.8486C140.166 49.8486 140.673 49.6729 141.106 49.3213C141.54 48.9697 141.78 48.5303 141.827 48.0029H143.365C143.336 48.5479 143.148 49.0664 142.803 49.5586C142.457 50.0508 141.994 50.4434 141.414 50.7363C140.84 51.0293 140.23 51.1758 139.586 51.1758C138.291 51.1758 137.26 50.7451 136.492 49.8838C135.73 49.0166 135.35 47.833 135.35 46.333V46.0605C135.35 45.1348 135.52 44.3115 135.859 43.5908C136.199 42.8701 136.686 42.3105 137.318 41.9121C137.957 41.5137 138.71 41.3145 139.577 41.3145C140.644 41.3145 141.528 41.6338 142.231 42.2725C142.94 42.9111 143.318 43.7402 143.365 44.7598H141.827C141.78 44.1445 141.546 43.6406 141.124 43.248C140.708 42.8496 140.192 42.6504 139.577 42.6504C138.751 42.6504 138.109 42.9492 137.652 43.5469C137.201 44.1387 136.976 44.9971 136.976 46.1221V46.4297C136.976 47.5254 137.201 48.3691 137.652 48.9609C138.104 49.5527 138.748 49.8486 139.586 49.8486ZM146.819 42.6416C147.54 41.7568 148.478 41.3145 149.632 41.3145C151.642 41.3145 152.655 42.4482 152.673 44.7158V51H151.047V44.707C151.041 44.0215 150.883 43.5146 150.572 43.1865C150.268 42.8584 149.79 42.6943 149.14 42.6943C148.612 42.6943 148.149 42.835 147.751 43.1162C147.353 43.3975 147.042 43.7666 146.819 44.2236V51H145.193V37.5H146.819V42.6416Z" fill="white"/>
<path d="M236.485 30V17.2031H240.669C242.058 17.2031 243.101 17.4902 243.798 18.0645C244.501 18.6387 244.853 19.4883 244.853 20.6133C244.853 21.2109 244.683 21.7412 244.343 22.2041C244.003 22.6611 243.54 23.0156 242.954 23.2676C243.646 23.4609 244.19 23.8301 244.589 24.375C244.993 24.9141 245.195 25.5586 245.195 26.3086C245.195 27.457 244.823 28.3594 244.079 29.0156C243.335 29.6719 242.283 30 240.924 30H236.485ZM238.173 24.0146V28.6201H240.959C241.744 28.6201 242.362 28.418 242.813 28.0137C243.271 27.6035 243.499 27.041 243.499 26.3262C243.499 24.7852 242.661 24.0146 240.985 24.0146H238.173ZM238.173 22.6611H240.722C241.46 22.6611 242.049 22.4766 242.488 22.1074C242.934 21.7383 243.156 21.2373 243.156 20.6045C243.156 19.9014 242.951 19.3916 242.541 19.0752C242.131 18.7529 241.507 18.5918 240.669 18.5918H238.173V22.6611ZM249.212 30H247.586V20.4902H249.212V30ZM247.454 17.9678C247.454 17.7041 247.533 17.4814 247.691 17.2998C247.855 17.1182 248.096 17.0273 248.412 17.0273C248.729 17.0273 248.969 17.1182 249.133 17.2998C249.297 17.4814 249.379 17.7041 249.379 17.9678C249.379 18.2314 249.297 18.4512 249.133 18.627C248.969 18.8027 248.729 18.8906 248.412 18.8906C248.096 18.8906 247.855 18.8027 247.691 18.627C247.533 18.4512 247.454 18.2314 247.454 17.9678ZM253.36 20.4902L253.413 21.6855C254.14 20.7715 255.089 20.3145 256.261 20.3145C258.271 20.3145 259.284 21.4482 259.302 23.7158V30H257.676V23.707C257.67 23.0215 257.512 22.5146 257.201 22.1865C256.896 21.8584 256.419 21.6943 255.769 21.6943C255.241 21.6943 254.778 21.835 254.38 22.1162C253.981 22.3975 253.671 22.7666 253.448 23.2236V30H251.822V20.4902H253.36ZM267.625 30C267.531 29.8125 267.455 29.4785 267.396 28.998C266.641 29.7832 265.738 30.1758 264.689 30.1758C263.752 30.1758 262.981 29.9121 262.378 29.3848C261.78 28.8516 261.481 28.1777 261.481 27.3633C261.481 26.373 261.856 25.6055 262.606 25.0605C263.362 24.5098 264.423 24.2344 265.788 24.2344H267.37V23.4873C267.37 22.9189 267.2 22.4678 266.86 22.1338C266.521 21.7939 266.02 21.624 265.357 21.624C264.777 21.624 264.291 21.7705 263.898 22.0635C263.506 22.3564 263.31 22.7109 263.31 23.127H261.675C261.675 22.6523 261.842 22.1953 262.176 21.7559C262.516 21.3105 262.973 20.959 263.547 20.7012C264.127 20.4434 264.763 20.3145 265.454 20.3145C266.55 20.3145 267.408 20.5898 268.029 21.1406C268.65 21.6855 268.973 22.4385 268.996 23.3994V27.7764C268.996 28.6494 269.107 29.3438 269.33 29.8594V30H267.625ZM264.927 28.7607C265.437 28.7607 265.92 28.6289 266.377 28.3652C266.834 28.1016 267.165 27.7588 267.37 27.3369V25.3857H266.096C264.104 25.3857 263.107 25.9688 263.107 27.1348C263.107 27.6445 263.277 28.043 263.617 28.3301C263.957 28.6172 264.394 28.7607 264.927 28.7607ZM276.142 21.9492C275.896 21.9082 275.629 21.8877 275.342 21.8877C274.275 21.8877 273.552 22.3418 273.171 23.25V30H271.545V20.4902H273.127L273.153 21.5889C273.687 20.7393 274.442 20.3145 275.421 20.3145C275.737 20.3145 275.978 20.3555 276.142 20.4375V21.9492ZM280.914 27.6182L283.129 20.4902H284.869L281.046 31.4678C280.454 33.0498 279.514 33.8408 278.225 33.8408L277.917 33.8145L277.311 33.7002V32.3818L277.75 32.417C278.301 32.417 278.729 32.3057 279.033 32.083C279.344 31.8604 279.599 31.4531 279.798 30.8613L280.158 29.8945L276.766 20.4902H278.541L280.914 27.6182ZM241.768 48.4775C241.768 48.0381 241.601 47.6982 241.267 47.458C240.938 47.2119 240.361 47.001 239.535 46.8252C238.715 46.6494 238.062 46.4385 237.575 46.1924C237.095 45.9463 236.737 45.6533 236.503 45.3135C236.274 44.9736 236.16 44.5693 236.16 44.1006C236.16 43.3213 236.488 42.6621 237.145 42.123C237.807 41.584 238.65 41.3145 239.676 41.3145C240.754 41.3145 241.627 41.5928 242.295 42.1494C242.969 42.7061 243.306 43.418 243.306 44.2852H241.671C241.671 43.8398 241.48 43.4561 241.1 43.1338C240.725 42.8115 240.25 42.6504 239.676 42.6504C239.084 42.6504 238.621 42.7793 238.287 43.0371C237.953 43.2949 237.786 43.6318 237.786 44.0479C237.786 44.4404 237.941 44.7363 238.252 44.9355C238.562 45.1348 239.122 45.3252 239.931 45.5068C240.745 45.6885 241.404 45.9053 241.908 46.1572C242.412 46.4092 242.784 46.7139 243.024 47.0713C243.271 47.4229 243.394 47.8535 243.394 48.3633C243.394 49.2129 243.054 49.8955 242.374 50.4111C241.694 50.9209 240.812 51.1758 239.729 51.1758C238.967 51.1758 238.293 51.041 237.707 50.7715C237.121 50.502 236.661 50.127 236.327 49.6465C235.999 49.1602 235.835 48.6357 235.835 48.0732H237.461C237.49 48.6182 237.707 49.0518 238.111 49.374C238.521 49.6904 239.061 49.8486 239.729 49.8486C240.344 49.8486 240.836 49.7256 241.205 49.4795C241.58 49.2275 241.768 48.8936 241.768 48.4775ZM249.458 51.1758C248.169 51.1758 247.12 50.7539 246.312 49.9102C245.503 49.0605 245.099 47.9268 245.099 46.5088V46.21C245.099 45.2666 245.277 44.4258 245.635 43.6875C245.998 42.9434 246.502 42.3633 247.146 41.9473C247.797 41.5254 248.5 41.3145 249.256 41.3145C250.492 41.3145 251.453 41.7217 252.139 42.5361C252.824 43.3506 253.167 44.5166 253.167 46.0342V46.7109H246.725C246.748 47.6484 247.021 48.4072 247.542 48.9873C248.069 49.5615 248.737 49.8486 249.546 49.8486C250.12 49.8486 250.606 49.7314 251.005 49.4971C251.403 49.2627 251.752 48.9521 252.051 48.5654L253.044 49.3389C252.247 50.5635 251.052 51.1758 249.458 51.1758ZM249.256 42.6504C248.6 42.6504 248.049 42.8906 247.604 43.3711C247.158 43.8457 246.883 44.5137 246.777 45.375H251.541V45.252C251.494 44.4258 251.271 43.7871 250.873 43.3359C250.475 42.8789 249.936 42.6504 249.256 42.6504ZM260.928 51C260.834 50.8125 260.758 50.4785 260.699 49.998C259.943 50.7832 259.041 51.1758 257.992 51.1758C257.055 51.1758 256.284 50.9121 255.681 50.3848C255.083 49.8516 254.784 49.1777 254.784 48.3633C254.784 47.373 255.159 46.6055 255.909 46.0605C256.665 45.5098 257.726 45.2344 259.091 45.2344H260.673V44.4873C260.673 43.9189 260.503 43.4678 260.163 43.1338C259.823 42.7939 259.322 42.624 258.66 42.624C258.08 42.624 257.594 42.7705 257.201 43.0635C256.809 43.3564 256.612 43.7109 256.612 44.127H254.978C254.978 43.6523 255.145 43.1953 255.479 42.7559C255.818 42.3105 256.275 41.959 256.85 41.7012C257.43 41.4434 258.065 41.3145 258.757 41.3145C259.853 41.3145 260.711 41.5898 261.332 42.1406C261.953 42.6855 262.275 43.4385 262.299 44.3994V48.7764C262.299 49.6494 262.41 50.3438 262.633 50.8594V51H260.928ZM258.229 49.7607C258.739 49.7607 259.223 49.6289 259.68 49.3652C260.137 49.1016 260.468 48.7588 260.673 48.3369V46.3857H259.398C257.406 46.3857 256.41 46.9688 256.41 48.1348C256.41 48.6445 256.58 49.043 256.92 49.3301C257.26 49.6172 257.696 49.7607 258.229 49.7607ZM269.444 42.9492C269.198 42.9082 268.932 42.8877 268.645 42.8877C267.578 42.8877 266.854 43.3418 266.474 44.25V51H264.848V41.4902H266.43L266.456 42.5889C266.989 41.7393 267.745 41.3145 268.724 41.3145C269.04 41.3145 269.28 41.3555 269.444 41.4375V42.9492ZM274.586 49.8486C275.166 49.8486 275.673 49.6729 276.106 49.3213C276.54 48.9697 276.78 48.5303 276.827 48.0029H278.365C278.336 48.5479 278.148 49.0664 277.803 49.5586C277.457 50.0508 276.994 50.4434 276.414 50.7363C275.84 51.0293 275.23 51.1758 274.586 51.1758C273.291 51.1758 272.26 50.7451 271.492 49.8838C270.73 49.0166 270.35 47.833 270.35 46.333V46.0605C270.35 45.1348 270.52 44.3115 270.859 43.5908C271.199 42.8701 271.686 42.3105 272.318 41.9121C272.957 41.5137 273.71 41.3145 274.577 41.3145C275.644 41.3145 276.528 41.6338 277.231 42.2725C277.94 42.9111 278.318 43.7402 278.365 44.7598H276.827C276.78 44.1445 276.546 43.6406 276.124 43.248C275.708 42.8496 275.192 42.6504 274.577 42.6504C273.751 42.6504 273.109 42.9492 272.652 43.5469C272.201 44.1387 271.976 44.9971 271.976 46.1221V46.4297C271.976 47.5254 272.201 48.3691 272.652 48.9609C273.104 49.5527 273.748 49.8486 274.586 49.8486ZM281.819 42.6416C282.54 41.7568 283.478 41.3145 284.632 41.3145C286.642 41.3145 287.655 42.4482 287.673 44.7158V51H286.047V44.707C286.041 44.0215 285.883 43.5146 285.572 43.1865C285.268 42.8584 284.79 42.6943 284.14 42.6943C283.612 42.6943 283.149 42.835 282.751 43.1162C282.353 43.3975 282.042 43.7666 281.819 44.2236V51H280.193V37.5H281.819V42.6416Z" fill="white"/>
<line x1="38" y1="206.5" x2="353" y2="206.5" stroke="white"/>
<line x1="38" y1="68.5" x2="353" y2="68.5" stroke="white"/>
<line x1="38" y1="137.5" x2="353" y2="137.5" stroke="white"/>
<path d="M82.4072 97H80.7725V86.1631L77.4941 87.3672V85.8906L82.1523 84.1416H82.4072V97ZM95.1953 91.542C95.1953 93.4463 94.8701 94.8613 94.2197 95.7871C93.5693 96.7129 92.5527 97.1758 91.1699 97.1758C89.8047 97.1758 88.7939 96.7246 88.1377 95.8223C87.4814 94.9141 87.1416 93.5605 87.1182 91.7617V89.5908C87.1182 87.71 87.4434 86.3125 88.0938 85.3984C88.7441 84.4844 89.7637 84.0273 91.1523 84.0273C92.5293 84.0273 93.543 84.4697 94.1934 85.3545C94.8438 86.2334 95.1777 87.5928 95.1953 89.4326V91.542ZM93.5693 89.3184C93.5693 87.9414 93.376 86.9395 92.9893 86.3125C92.6025 85.6797 91.9902 85.3633 91.1523 85.3633C90.3203 85.3633 89.7139 85.6768 89.333 86.3037C88.9521 86.9307 88.7559 87.8945 88.7441 89.1953V91.7969C88.7441 93.1797 88.9434 94.2021 89.3418 94.8643C89.7461 95.5205 90.3555 95.8486 91.1699 95.8486C91.9727 95.8486 92.5674 95.5381 92.9541 94.917C93.3467 94.2959 93.5518 93.3174 93.5693 91.9814V89.3184ZM105.303 91.542C105.303 93.4463 104.978 94.8613 104.327 95.7871C103.677 96.7129 102.66 97.1758 101.277 97.1758C99.9121 97.1758 98.9014 96.7246 98.2451 95.8223C97.5889 94.9141 97.249 93.5605 97.2256 91.7617V89.5908C97.2256 87.71 97.5508 86.3125 98.2012 85.3984C98.8516 84.4844 99.8711 84.0273 101.26 84.0273C102.637 84.0273 103.65 84.4697 104.301 85.3545C104.951 86.2334 105.285 87.5928 105.303 89.4326V91.542ZM103.677 89.3184C103.677 87.9414 103.483 86.9395 103.097 86.3125C102.71 85.6797 102.098 85.3633 101.26 85.3633C100.428 85.3633 99.8213 85.6768 99.4404 86.3037C99.0596 86.9307 98.8633 87.8945 98.8516 89.1953V91.7969C98.8516 93.1797 99.0508 94.2021 99.4492 94.8643C99.8535 95.5205 100.463 95.8486 101.277 95.8486C102.08 95.8486 102.675 95.5381 103.062 94.917C103.454 94.2959 103.659 93.3174 103.677 91.9814V89.3184ZM113.784 97H112.158V87.4902H113.784V97ZM112.026 84.9678C112.026 84.7041 112.105 84.4814 112.264 84.2998C112.428 84.1182 112.668 84.0273 112.984 84.0273C113.301 84.0273 113.541 84.1182 113.705 84.2998C113.869 84.4814 113.951 84.7041 113.951 84.9678C113.951 85.2314 113.869 85.4512 113.705 85.627C113.541 85.8027 113.301 85.8906 112.984 85.8906C112.668 85.8906 112.428 85.8027 112.264 85.627C112.105 85.4512 112.026 85.2314 112.026 84.9678ZM118.601 85.1875V87.4902H120.376V88.7471H118.601V94.6445C118.601 95.0254 118.68 95.3125 118.838 95.5059C118.996 95.6934 119.266 95.7871 119.646 95.7871C119.834 95.7871 120.092 95.752 120.42 95.6816V97C119.992 97.1172 119.576 97.1758 119.172 97.1758C118.445 97.1758 117.897 96.9561 117.528 96.5166C117.159 96.0771 116.975 95.4531 116.975 94.6445V88.7471H115.243V87.4902H116.975V85.1875H118.601ZM126.229 97.1758C124.94 97.1758 123.892 96.7539 123.083 95.9102C122.274 95.0605 121.87 93.9268 121.87 92.5088V92.21C121.87 91.2666 122.049 90.4258 122.406 89.6875C122.77 88.9434 123.273 88.3633 123.918 87.9473C124.568 87.5254 125.271 87.3145 126.027 87.3145C127.264 87.3145 128.225 87.7217 128.91 88.5361C129.596 89.3506 129.938 90.5166 129.938 92.0342V92.7109H123.496C123.52 93.6484 123.792 94.4072 124.313 94.9873C124.841 95.5615 125.509 95.8486 126.317 95.8486C126.892 95.8486 127.378 95.7314 127.776 95.4971C128.175 95.2627 128.523 94.9521 128.822 94.5654L129.815 95.3389C129.019 96.5635 127.823 97.1758 126.229 97.1758ZM126.027 88.6504C125.371 88.6504 124.82 88.8906 124.375 89.3711C123.93 89.8457 123.654 90.5137 123.549 91.375H128.312V91.252C128.266 90.4258 128.043 89.7871 127.645 89.3359C127.246 88.8789 126.707 88.6504 126.027 88.6504ZM133.357 87.4902L133.401 88.5449C134.099 87.7246 135.039 87.3145 136.223 87.3145C137.553 87.3145 138.458 87.8242 138.938 88.8438C139.255 88.3867 139.665 88.0176 140.169 87.7363C140.679 87.4551 141.279 87.3145 141.971 87.3145C144.057 87.3145 145.117 88.4189 145.152 90.6279V97H143.526V90.7246C143.526 90.0449 143.371 89.5381 143.061 89.2041C142.75 88.8643 142.229 88.6943 141.496 88.6943C140.893 88.6943 140.392 88.876 139.993 89.2393C139.595 89.5967 139.363 90.0801 139.299 90.6895V97H137.664V90.7686C137.664 89.3857 136.987 88.6943 135.634 88.6943C134.567 88.6943 133.838 89.1484 133.445 90.0566V97H131.819V87.4902H133.357ZM153.15 94.4775C153.15 94.0381 152.983 93.6982 152.649 93.458C152.321 93.2119 151.744 93.001 150.918 92.8252C150.098 92.6494 149.444 92.4385 148.958 92.1924C148.478 91.9463 148.12 91.6533 147.886 91.3135C147.657 90.9736 147.543 90.5693 147.543 90.1006C147.543 89.3213 147.871 88.6621 148.527 88.123C149.189 87.584 150.033 87.3145 151.059 87.3145C152.137 87.3145 153.01 87.5928 153.678 88.1494C154.352 88.7061 154.688 89.418 154.688 90.2852H153.054C153.054 89.8398 152.863 89.4561 152.482 89.1338C152.107 88.8115 151.633 88.6504 151.059 88.6504C150.467 88.6504 150.004 88.7793 149.67 89.0371C149.336 89.2949 149.169 89.6318 149.169 90.0479C149.169 90.4404 149.324 90.7363 149.635 90.9355C149.945 91.1348 150.505 91.3252 151.313 91.5068C152.128 91.6885 152.787 91.9053 153.291 92.1572C153.795 92.4092 154.167 92.7139 154.407 93.0713C154.653 93.4229 154.776 93.8535 154.776 94.3633C154.776 95.2129 154.437 95.8955 153.757 96.4111C153.077 96.9209 152.195 97.1758 151.111 97.1758C150.35 97.1758 149.676 97.041 149.09 96.7715C148.504 96.502 148.044 96.127 147.71 95.6465C147.382 95.1602 147.218 94.6357 147.218 94.0732H148.844C148.873 94.6182 149.09 95.0518 149.494 95.374C149.904 95.6904 150.443 95.8486 151.111 95.8486C151.727 95.8486 152.219 95.7256 152.588 95.4795C152.963 95.2275 153.15 94.8936 153.15 94.4775ZM82.4072 118H80.7725V107.163L77.4941 108.367V106.891L82.1523 105.142H82.4072V118ZM95.1953 112.542C95.1953 114.446 94.8701 115.861 94.2197 116.787C93.5693 117.713 92.5527 118.176 91.1699 118.176C89.8047 118.176 88.7939 117.725 88.1377 116.822C87.4814 115.914 87.1416 114.561 87.1182 112.762V110.591C87.1182 108.71 87.4434 107.312 88.0938 106.398C88.7441 105.484 89.7637 105.027 91.1523 105.027C92.5293 105.027 93.543 105.47 94.1934 106.354C94.8438 107.233 95.1777 108.593 95.1953 110.433V112.542ZM93.5693 110.318C93.5693 108.941 93.376 107.939 92.9893 107.312C92.6025 106.68 91.9902 106.363 91.1523 106.363C90.3203 106.363 89.7139 106.677 89.333 107.304C88.9521 107.931 88.7559 108.895 88.7441 110.195V112.797C88.7441 114.18 88.9434 115.202 89.3418 115.864C89.7461 116.521 90.3555 116.849 91.1699 116.849C91.9727 116.849 92.5674 116.538 92.9541 115.917C93.3467 115.296 93.5518 114.317 93.5693 112.981V110.318ZM105.303 112.542C105.303 114.446 104.978 115.861 104.327 116.787C103.677 117.713 102.66 118.176 101.277 118.176C99.9121 118.176 98.9014 117.725 98.2451 116.822C97.5889 115.914 97.249 114.561 97.2256 112.762V110.591C97.2256 108.71 97.5508 107.312 98.2012 106.398C98.8516 105.484 99.8711 105.027 101.26 105.027C102.637 105.027 103.65 105.47 104.301 106.354C104.951 107.233 105.285 108.593 105.303 110.433V112.542ZM103.677 110.318C103.677 108.941 103.483 107.939 103.097 107.312C102.71 106.68 102.098 106.363 101.26 106.363C100.428 106.363 99.8213 106.677 99.4404 107.304C99.0596 107.931 98.8633 108.895 98.8516 110.195V112.797C98.8516 114.18 99.0508 115.202 99.4492 115.864C99.8535 116.521 100.463 116.849 101.277 116.849C102.08 116.849 102.675 116.538 103.062 115.917C103.454 115.296 103.659 114.317 103.677 112.981V110.318ZM111.631 113.166C111.631 111.684 111.974 110.506 112.659 109.633C113.345 108.754 114.253 108.314 115.384 108.314C116.544 108.314 117.449 108.725 118.1 109.545L118.179 108.49H119.664V117.771C119.664 119.002 119.298 119.972 118.565 120.681C117.839 121.39 116.86 121.744 115.63 121.744C114.944 121.744 114.273 121.598 113.617 121.305C112.961 121.012 112.46 120.61 112.114 120.101L112.958 119.125C113.655 119.986 114.508 120.417 115.516 120.417C116.307 120.417 116.922 120.194 117.361 119.749C117.807 119.304 118.029 118.677 118.029 117.868V117.051C117.379 117.801 116.491 118.176 115.366 118.176C114.253 118.176 113.351 117.728 112.659 116.831C111.974 115.935 111.631 114.713 111.631 113.166ZM113.266 113.351C113.266 114.423 113.485 115.267 113.925 115.882C114.364 116.491 114.979 116.796 115.771 116.796C116.796 116.796 117.549 116.33 118.029 115.398V111.057C117.531 110.148 116.784 109.694 115.788 109.694C114.997 109.694 114.379 110.002 113.934 110.617C113.488 111.232 113.266 112.144 113.266 113.351ZM127.996 117.06C127.363 117.804 126.435 118.176 125.21 118.176C124.196 118.176 123.423 117.883 122.89 117.297C122.362 116.705 122.096 115.832 122.09 114.678V108.49H123.716V114.634C123.716 116.075 124.302 116.796 125.474 116.796C126.716 116.796 127.542 116.333 127.952 115.407V108.49H129.578V118H128.031L127.996 117.06ZM136.003 118.176C134.714 118.176 133.665 117.754 132.856 116.91C132.048 116.061 131.644 114.927 131.644 113.509V113.21C131.644 112.267 131.822 111.426 132.18 110.688C132.543 109.943 133.047 109.363 133.691 108.947C134.342 108.525 135.045 108.314 135.801 108.314C137.037 108.314 137.998 108.722 138.684 109.536C139.369 110.351 139.712 111.517 139.712 113.034V113.711H133.27C133.293 114.648 133.565 115.407 134.087 115.987C134.614 116.562 135.282 116.849 136.091 116.849C136.665 116.849 137.151 116.731 137.55 116.497C137.948 116.263 138.297 115.952 138.596 115.565L139.589 116.339C138.792 117.563 137.597 118.176 136.003 118.176ZM135.801 109.65C135.145 109.65 134.594 109.891 134.148 110.371C133.703 110.846 133.428 111.514 133.322 112.375H138.086V112.252C138.039 111.426 137.816 110.787 137.418 110.336C137.02 109.879 136.48 109.65 135.801 109.65ZM147.139 115.478C147.139 115.038 146.972 114.698 146.638 114.458C146.31 114.212 145.732 114.001 144.906 113.825C144.086 113.649 143.433 113.438 142.946 113.192C142.466 112.946 142.108 112.653 141.874 112.313C141.646 111.974 141.531 111.569 141.531 111.101C141.531 110.321 141.859 109.662 142.516 109.123C143.178 108.584 144.021 108.314 145.047 108.314C146.125 108.314 146.998 108.593 147.666 109.149C148.34 109.706 148.677 110.418 148.677 111.285H147.042C147.042 110.84 146.852 110.456 146.471 110.134C146.096 109.812 145.621 109.65 145.047 109.65C144.455 109.65 143.992 109.779 143.658 110.037C143.324 110.295 143.157 110.632 143.157 111.048C143.157 111.44 143.312 111.736 143.623 111.936C143.934 112.135 144.493 112.325 145.302 112.507C146.116 112.688 146.775 112.905 147.279 113.157C147.783 113.409 148.155 113.714 148.396 114.071C148.642 114.423 148.765 114.854 148.765 115.363C148.765 116.213 148.425 116.896 147.745 117.411C147.065 117.921 146.184 118.176 145.1 118.176C144.338 118.176 143.664 118.041 143.078 117.771C142.492 117.502 142.032 117.127 141.698 116.646C141.37 116.16 141.206 115.636 141.206 115.073H142.832C142.861 115.618 143.078 116.052 143.482 116.374C143.893 116.69 144.432 116.849 145.1 116.849C145.715 116.849 146.207 116.726 146.576 116.479C146.951 116.228 147.139 115.894 147.139 115.478ZM156.42 115.478C156.42 115.038 156.253 114.698 155.919 114.458C155.591 114.212 155.014 114.001 154.188 113.825C153.367 113.649 152.714 113.438 152.228 113.192C151.747 112.946 151.39 112.653 151.155 112.313C150.927 111.974 150.812 111.569 150.812 111.101C150.812 110.321 151.141 109.662 151.797 109.123C152.459 108.584 153.303 108.314 154.328 108.314C155.406 108.314 156.279 108.593 156.947 109.149C157.621 109.706 157.958 110.418 157.958 111.285H156.323C156.323 110.84 156.133 110.456 155.752 110.134C155.377 109.812 154.902 109.65 154.328 109.65C153.736 109.65 153.273 109.779 152.939 110.037C152.605 110.295 152.438 110.632 152.438 111.048C152.438 111.44 152.594 111.736 152.904 111.936C153.215 112.135 153.774 112.325 154.583 112.507C155.397 112.688 156.057 112.905 156.561 113.157C157.064 113.409 157.437 113.714 157.677 114.071C157.923 114.423 158.046 114.854 158.046 115.363C158.046 116.213 157.706 116.896 157.026 117.411C156.347 117.921 155.465 118.176 154.381 118.176C153.619 118.176 152.945 118.041 152.359 117.771C151.773 117.502 151.313 117.127 150.979 116.646C150.651 116.16 150.487 115.636 150.487 115.073H152.113C152.143 115.618 152.359 116.052 152.764 116.374C153.174 116.69 153.713 116.849 154.381 116.849C154.996 116.849 155.488 116.726 155.857 116.479C156.232 116.228 156.42 115.894 156.42 115.478ZM164.11 118.176C162.821 118.176 161.772 117.754 160.964 116.91C160.155 116.061 159.751 114.927 159.751 113.509V113.21C159.751 112.267 159.93 111.426 160.287 110.688C160.65 109.943 161.154 109.363 161.799 108.947C162.449 108.525 163.152 108.314 163.908 108.314C165.145 108.314 166.105 108.722 166.791 109.536C167.477 110.351 167.819 111.517 167.819 113.034V113.711H161.377C161.4 114.648 161.673 115.407 162.194 115.987C162.722 116.562 163.39 116.849 164.198 116.849C164.772 116.849 165.259 116.731 165.657 116.497C166.056 116.263 166.404 115.952 166.703 115.565L167.696 116.339C166.899 117.563 165.704 118.176 164.11 118.176ZM163.908 109.65C163.252 109.65 162.701 109.891 162.256 110.371C161.811 110.846 161.535 111.514 161.43 112.375H166.193V112.252C166.146 111.426 165.924 110.787 165.525 110.336C165.127 109.879 164.588 109.65 163.908 109.65ZM175.246 115.478C175.246 115.038 175.079 114.698 174.745 114.458C174.417 114.212 173.84 114.001 173.014 113.825C172.193 113.649 171.54 113.438 171.054 113.192C170.573 112.946 170.216 112.653 169.981 112.313C169.753 111.974 169.639 111.569 169.639 111.101C169.639 110.321 169.967 109.662 170.623 109.123C171.285 108.584 172.129 108.314 173.154 108.314C174.232 108.314 175.105 108.593 175.773 109.149C176.447 109.706 176.784 110.418 176.784 111.285H175.149C175.149 110.84 174.959 110.456 174.578 110.134C174.203 109.812 173.729 109.65 173.154 109.65C172.562 109.65 172.1 109.779 171.766 110.037C171.432 110.295 171.265 110.632 171.265 111.048C171.265 111.44 171.42 111.736 171.73 111.936C172.041 112.135 172.601 112.325 173.409 112.507C174.224 112.688 174.883 112.905 175.387 113.157C175.891 113.409 176.263 113.714 176.503 114.071C176.749 114.423 176.872 114.854 176.872 115.363C176.872 116.213 176.532 116.896 175.853 117.411C175.173 117.921 174.291 118.176 173.207 118.176C172.445 118.176 171.771 118.041 171.186 117.771C170.6 117.502 170.14 117.127 169.806 116.646C169.478 116.16 169.313 115.636 169.313 115.073H170.939C170.969 115.618 171.186 116.052 171.59 116.374C172 116.69 172.539 116.849 173.207 116.849C173.822 116.849 174.314 116.726 174.684 116.479C175.059 116.228 175.246 115.894 175.246 115.478Z" fill="white"/>
<path d="M7.92773 159.702H9.70312V161.029H7.92773V164H6.29297V161.029H0.46582V160.071L6.19629 151.203H7.92773V159.702ZM2.31152 159.702H6.29297V153.427L6.09961 153.778L2.31152 159.702ZM11.373 163.147C11.373 162.866 11.4551 162.632 11.6191 162.444C11.7891 162.257 12.041 162.163 12.375 162.163C12.709 162.163 12.9609 162.257 13.1309 162.444C13.3066 162.632 13.3945 162.866 13.3945 163.147C13.3945 163.417 13.3066 163.643 13.1309 163.824C12.9609 164.006 12.709 164.097 12.375 164.097C12.041 164.097 11.7891 164.006 11.6191 163.824C11.4551 163.643 11.373 163.417 11.373 163.147ZM23.9414 158.542C23.9414 160.446 23.6162 161.861 22.9658 162.787C22.3154 163.713 21.2988 164.176 19.916 164.176C18.5508 164.176 17.54 163.725 16.8838 162.822C16.2275 161.914 15.8877 160.561 15.8643 158.762V156.591C15.8643 154.71 16.1895 153.312 16.8398 152.398C17.4902 151.484 18.5098 151.027 19.8984 151.027C21.2754 151.027 22.2891 151.47 22.9395 152.354C23.5898 153.233 23.9238 154.593 23.9414 156.433V158.542ZM22.3154 156.318C22.3154 154.941 22.1221 153.939 21.7354 153.312C21.3486 152.68 20.7363 152.363 19.8984 152.363C19.0664 152.363 18.46 152.677 18.0791 153.304C17.6982 153.931 17.502 154.895 17.4902 156.195V158.797C17.4902 160.18 17.6895 161.202 18.0879 161.864C18.4922 162.521 19.1016 162.849 19.916 162.849C20.7188 162.849 21.3135 162.538 21.7002 161.917C22.0928 161.296 22.2979 160.317 22.3154 158.981V156.318ZM34.0488 158.542C34.0488 160.446 33.7236 161.861 33.0732 162.787C32.4229 163.713 31.4062 164.176 30.0234 164.176C28.6582 164.176 27.6475 163.725 26.9912 162.822C26.335 161.914 25.9951 160.561 25.9717 158.762V156.591C25.9717 154.71 26.2969 153.312 26.9473 152.398C27.5977 151.484 28.6172 151.027 30.0059 151.027C31.3828 151.027 32.3965 151.47 33.0469 152.354C33.6973 153.233 34.0312 154.593 34.0488 156.433V158.542ZM32.4229 156.318C32.4229 154.941 32.2295 153.939 31.8428 153.312C31.4561 152.68 30.8438 152.363 30.0059 152.363C29.1738 152.363 28.5674 152.677 28.1865 153.304C27.8057 153.931 27.6094 154.895 27.5977 156.195V158.797C27.5977 160.18 27.7969 161.202 28.1953 161.864C28.5996 162.521 29.209 162.849 30.0234 162.849C30.8262 162.849 31.4209 162.538 31.8076 161.917C32.2002 161.296 32.4053 160.317 32.4229 158.981V156.318ZM44.1562 158.542C44.1562 160.446 43.8311 161.861 43.1807 162.787C42.5303 163.713 41.5137 164.176 40.1309 164.176C38.7656 164.176 37.7549 163.725 37.0986 162.822C36.4424 161.914 36.1025 160.561 36.0791 158.762V156.591C36.0791 154.71 36.4043 153.312 37.0547 152.398C37.7051 151.484 38.7246 151.027 40.1133 151.027C41.4902 151.027 42.5039 151.47 43.1543 152.354C43.8047 153.233 44.1387 154.593 44.1562 156.433V158.542ZM42.5303 156.318C42.5303 154.941 42.3369 153.939 41.9502 153.312C41.5635 152.68 40.9512 152.363 40.1133 152.363C39.2812 152.363 38.6748 152.677 38.2939 153.304C37.9131 153.931 37.7168 154.895 37.7051 156.195V158.797C37.7051 160.18 37.9043 161.202 38.3027 161.864C38.707 162.521 39.3164 162.849 40.1309 162.849C40.9336 162.849 41.5283 162.538 41.915 161.917C42.3076 161.296 42.5127 160.317 42.5303 158.981V156.318ZM46.4414 163.147C46.4414 162.866 46.5234 162.632 46.6875 162.444C46.8574 162.257 47.1094 162.163 47.4434 162.163C47.7773 162.163 48.0293 162.257 48.1992 162.444C48.375 162.632 48.4629 162.866 48.4629 163.147C48.4629 163.417 48.375 163.643 48.1992 163.824C48.0293 164.006 47.7773 164.097 47.4434 164.097C47.1094 164.097 46.8574 164.006 46.6875 163.824C46.5234 163.643 46.4414 163.417 46.4414 163.147ZM59.0098 158.542C59.0098 160.446 58.6846 161.861 58.0342 162.787C57.3838 163.713 56.3672 164.176 54.9844 164.176C53.6191 164.176 52.6084 163.725 51.9521 162.822C51.2959 161.914 50.9561 160.561 50.9326 158.762V156.591C50.9326 154.71 51.2578 153.312 51.9082 152.398C52.5586 151.484 53.5781 151.027 54.9668 151.027C56.3438 151.027 57.3574 151.47 58.0078 152.354C58.6582 153.233 58.9922 154.593 59.0098 156.433V158.542ZM57.3838 156.318C57.3838 154.941 57.1904 153.939 56.8037 153.312C56.417 152.68 55.8047 152.363 54.9668 152.363C54.1348 152.363 53.5283 152.677 53.1475 153.304C52.7666 153.931 52.5703 154.895 52.5586 156.195V158.797C52.5586 160.18 52.7578 161.202 53.1562 161.864C53.5605 162.521 54.1699 162.849 54.9844 162.849C55.7871 162.849 56.3818 162.538 56.7686 161.917C57.1611 161.296 57.3662 160.317 57.3838 158.981V156.318ZM69.1172 158.542C69.1172 160.446 68.792 161.861 68.1416 162.787C67.4912 163.713 66.4746 164.176 65.0918 164.176C63.7266 164.176 62.7158 163.725 62.0596 162.822C61.4033 161.914 61.0635 160.561 61.04 158.762V156.591C61.04 154.71 61.3652 153.312 62.0156 152.398C62.666 151.484 63.6855 151.027 65.0742 151.027C66.4512 151.027 67.4648 151.47 68.1152 152.354C68.7656 153.233 69.0996 154.593 69.1172 156.433V158.542ZM67.4912 156.318C67.4912 154.941 67.2979 153.939 66.9111 153.312C66.5244 152.68 65.9121 152.363 65.0742 152.363C64.2422 152.363 63.6357 152.677 63.2549 153.304C62.874 153.931 62.6777 154.895 62.666 156.195V158.797C62.666 160.18 62.8652 161.202 63.2637 161.864C63.668 162.521 64.2773 162.849 65.0918 162.849C65.8945 162.849 66.4893 162.538 66.876 161.917C67.2686 161.296 67.4736 160.317 67.4912 158.981V156.318ZM79.2246 158.542C79.2246 160.446 78.8994 161.861 78.249 162.787C77.5986 163.713 76.582 164.176 75.1992 164.176C73.834 164.176 72.8232 163.725 72.167 162.822C71.5107 161.914 71.1709 160.561 71.1475 158.762V156.591C71.1475 154.71 71.4727 153.312 72.123 152.398C72.7734 151.484 73.793 151.027 75.1816 151.027C76.5586 151.027 77.5723 151.47 78.2227 152.354C78.873 153.233 79.207 154.593 79.2246 156.433V158.542ZM77.5986 156.318C77.5986 154.941 77.4053 153.939 77.0186 153.312C76.6318 152.68 76.0195 152.363 75.1816 152.363C74.3496 152.363 73.7432 152.677 73.3623 153.304C72.9814 153.931 72.7852 154.895 72.7734 156.195V158.797C72.7734 160.18 72.9727 161.202 73.3711 161.864C73.7754 162.521 74.3848 162.849 75.1992 162.849C76.002 162.849 76.5967 162.538 76.9834 161.917C77.376 161.296 77.5811 160.317 77.5986 158.981V156.318ZM81.5098 163.147C81.5098 162.866 81.5918 162.632 81.7559 162.444C81.9258 162.257 82.1777 162.163 82.5117 162.163C82.8457 162.163 83.0977 162.257 83.2676 162.444C83.4434 162.632 83.5312 162.866 83.5312 163.147C83.5312 163.417 83.4434 163.643 83.2676 163.824C83.0977 164.006 82.8457 164.097 82.5117 164.097C82.1777 164.097 81.9258 164.006 81.7559 163.824C81.5918 163.643 81.5098 163.417 81.5098 163.147ZM94.0781 158.542C94.0781 160.446 93.7529 161.861 93.1025 162.787C92.4521 163.713 91.4355 164.176 90.0527 164.176C88.6875 164.176 87.6768 163.725 87.0205 162.822C86.3643 161.914 86.0244 160.561 86.001 158.762V156.591C86.001 154.71 86.3262 153.312 86.9766 152.398C87.627 151.484 88.6465 151.027 90.0352 151.027C91.4121 151.027 92.4258 151.47 93.0762 152.354C93.7266 153.233 94.0605 154.593 94.0781 156.433V158.542ZM92.4521 156.318C92.4521 154.941 92.2588 153.939 91.8721 153.312C91.4854 152.68 90.873 152.363 90.0352 152.363C89.2031 152.363 88.5967 152.677 88.2158 153.304C87.835 153.931 87.6387 154.895 87.627 156.195V158.797C87.627 160.18 87.8262 161.202 88.2246 161.864C88.6289 162.521 89.2383 162.849 90.0527 162.849C90.8555 162.849 91.4502 162.538 91.8369 161.917C92.2295 161.296 92.4346 160.317 92.4521 158.981V156.318ZM104.186 158.542C104.186 160.446 103.86 161.861 103.21 162.787C102.56 163.713 101.543 164.176 100.16 164.176C98.7949 164.176 97.7842 163.725 97.1279 162.822C96.4717 161.914 96.1318 160.561 96.1084 158.762V156.591C96.1084 154.71 96.4336 153.312 97.084 152.398C97.7344 151.484 98.7539 151.027 100.143 151.027C101.52 151.027 102.533 151.47 103.184 152.354C103.834 153.233 104.168 154.593 104.186 156.433V158.542ZM102.56 156.318C102.56 154.941 102.366 153.939 101.979 153.312C101.593 152.68 100.98 152.363 100.143 152.363C99.3105 152.363 98.7041 152.677 98.3232 153.304C97.9424 153.931 97.7461 154.895 97.7344 156.195V158.797C97.7344 160.18 97.9336 161.202 98.332 161.864C98.7363 162.521 99.3457 162.849 100.16 162.849C100.963 162.849 101.558 162.538 101.944 161.917C102.337 161.296 102.542 160.317 102.56 158.981V156.318ZM114.293 158.542C114.293 160.446 113.968 161.861 113.317 162.787C112.667 163.713 111.65 164.176 110.268 164.176C108.902 164.176 107.892 163.725 107.235 162.822C106.579 161.914 106.239 160.561 106.216 158.762V156.591C106.216 154.71 106.541 153.312 107.191 152.398C107.842 151.484 108.861 151.027 110.25 151.027C111.627 151.027 112.641 151.47 113.291 152.354C113.941 153.233 114.275 154.593 114.293 156.433V158.542ZM112.667 156.318C112.667 154.941 112.474 153.939 112.087 153.312C111.7 152.68 111.088 152.363 110.25 152.363C109.418 152.363 108.812 152.677 108.431 153.304C108.05 153.931 107.854 154.895 107.842 156.195V158.797C107.842 160.18 108.041 161.202 108.439 161.864C108.844 162.521 109.453 162.849 110.268 162.849C111.07 162.849 111.665 162.538 112.052 161.917C112.444 161.296 112.649 160.317 112.667 158.981V156.318ZM122.774 164H121.148V154.49H122.774V164ZM121.017 151.968C121.017 151.704 121.096 151.481 121.254 151.3C121.418 151.118 121.658 151.027 121.975 151.027C122.291 151.027 122.531 151.118 122.695 151.3C122.859 151.481 122.941 151.704 122.941 151.968C122.941 152.231 122.859 152.451 122.695 152.627C122.531 152.803 122.291 152.891 121.975 152.891C121.658 152.891 121.418 152.803 121.254 152.627C121.096 152.451 121.017 152.231 121.017 151.968ZM127.591 152.188V154.49H129.366V155.747H127.591V161.645C127.591 162.025 127.67 162.312 127.828 162.506C127.986 162.693 128.256 162.787 128.637 162.787C128.824 162.787 129.082 162.752 129.41 162.682V164C128.982 164.117 128.566 164.176 128.162 164.176C127.436 164.176 126.888 163.956 126.519 163.517C126.149 163.077 125.965 162.453 125.965 161.645V155.747H124.233V154.49H125.965V152.188H127.591ZM135.22 164.176C133.931 164.176 132.882 163.754 132.073 162.91C131.265 162.061 130.86 160.927 130.86 159.509V159.21C130.86 158.267 131.039 157.426 131.396 156.688C131.76 155.943 132.264 155.363 132.908 154.947C133.559 154.525 134.262 154.314 135.018 154.314C136.254 154.314 137.215 154.722 137.9 155.536C138.586 156.351 138.929 157.517 138.929 159.034V159.711H132.486C132.51 160.648 132.782 161.407 133.304 161.987C133.831 162.562 134.499 162.849 135.308 162.849C135.882 162.849 136.368 162.731 136.767 162.497C137.165 162.263 137.514 161.952 137.812 161.565L138.806 162.339C138.009 163.563 136.813 164.176 135.22 164.176ZM135.018 155.65C134.361 155.65 133.811 155.891 133.365 156.371C132.92 156.846 132.645 157.514 132.539 158.375H137.303V158.252C137.256 157.426 137.033 156.787 136.635 156.336C136.236 155.879 135.697 155.65 135.018 155.65ZM142.348 154.49L142.392 155.545C143.089 154.725 144.029 154.314 145.213 154.314C146.543 154.314 147.448 154.824 147.929 155.844C148.245 155.387 148.655 155.018 149.159 154.736C149.669 154.455 150.27 154.314 150.961 154.314C153.047 154.314 154.107 155.419 154.143 157.628V164H152.517V157.725C152.517 157.045 152.361 156.538 152.051 156.204C151.74 155.864 151.219 155.694 150.486 155.694C149.883 155.694 149.382 155.876 148.983 156.239C148.585 156.597 148.354 157.08 148.289 157.689V164H146.654V157.769C146.654 156.386 145.978 155.694 144.624 155.694C143.558 155.694 142.828 156.148 142.436 157.057V164H140.81V154.49H142.348ZM162.141 161.478C162.141 161.038 161.974 160.698 161.64 160.458C161.312 160.212 160.734 160.001 159.908 159.825C159.088 159.649 158.435 159.438 157.948 159.192C157.468 158.946 157.11 158.653 156.876 158.313C156.647 157.974 156.533 157.569 156.533 157.101C156.533 156.321 156.861 155.662 157.518 155.123C158.18 154.584 159.023 154.314 160.049 154.314C161.127 154.314 162 154.593 162.668 155.149C163.342 155.706 163.679 156.418 163.679 157.285H162.044C162.044 156.84 161.854 156.456 161.473 156.134C161.098 155.812 160.623 155.65 160.049 155.65C159.457 155.65 158.994 155.779 158.66 156.037C158.326 156.295 158.159 156.632 158.159 157.048C158.159 157.44 158.314 157.736 158.625 157.936C158.936 158.135 159.495 158.325 160.304 158.507C161.118 158.688 161.777 158.905 162.281 159.157C162.785 159.409 163.157 159.714 163.397 160.071C163.644 160.423 163.767 160.854 163.767 161.363C163.767 162.213 163.427 162.896 162.747 163.411C162.067 163.921 161.186 164.176 160.102 164.176C159.34 164.176 158.666 164.041 158.08 163.771C157.494 163.502 157.034 163.127 156.7 162.646C156.372 162.16 156.208 161.636 156.208 161.073H157.834C157.863 161.618 158.08 162.052 158.484 162.374C158.895 162.69 159.434 162.849 160.102 162.849C160.717 162.849 161.209 162.726 161.578 162.479C161.953 162.228 162.141 161.894 162.141 161.478ZM7.92773 180.702H9.70312V182.029H7.92773V185H6.29297V182.029H0.46582V181.071L6.19629 172.203H7.92773V180.702ZM2.31152 180.702H6.29297V174.427L6.09961 174.778L2.31152 180.702ZM11.373 184.147C11.373 183.866 11.4551 183.632 11.6191 183.444C11.7891 183.257 12.041 183.163 12.375 183.163C12.709 183.163 12.9609 183.257 13.1309 183.444C13.3066 183.632 13.3945 183.866 13.3945 184.147C13.3945 184.417 13.3066 184.643 13.1309 184.824C12.9609 185.006 12.709 185.097 12.375 185.097C12.041 185.097 11.7891 185.006 11.6191 184.824C11.4551 184.643 11.373 184.417 11.373 184.147ZM23.9414 179.542C23.9414 181.446 23.6162 182.861 22.9658 183.787C22.3154 184.713 21.2988 185.176 19.916 185.176C18.5508 185.176 17.54 184.725 16.8838 183.822C16.2275 182.914 15.8877 181.561 15.8643 179.762V177.591C15.8643 175.71 16.1895 174.312 16.8398 173.398C17.4902 172.484 18.5098 172.027 19.8984 172.027C21.2754 172.027 22.2891 172.47 22.9395 173.354C23.5898 174.233 23.9238 175.593 23.9414 177.433V179.542ZM22.3154 177.318C22.3154 175.941 22.1221 174.939 21.7354 174.312C21.3486 173.68 20.7363 173.363 19.8984 173.363C19.0664 173.363 18.46 173.677 18.0791 174.304C17.6982 174.931 17.502 175.895 17.4902 177.195V179.797C17.4902 181.18 17.6895 182.202 18.0879 182.864C18.4922 183.521 19.1016 183.849 19.916 183.849C20.7188 183.849 21.3135 183.538 21.7002 182.917C22.0928 182.296 22.2979 181.317 22.3154 179.981V177.318ZM34.0488 179.542C34.0488 181.446 33.7236 182.861 33.0732 183.787C32.4229 184.713 31.4062 185.176 30.0234 185.176C28.6582 185.176 27.6475 184.725 26.9912 183.822C26.335 182.914 25.9951 181.561 25.9717 179.762V177.591C25.9717 175.71 26.2969 174.312 26.9473 173.398C27.5977 172.484 28.6172 172.027 30.0059 172.027C31.3828 172.027 32.3965 172.47 33.0469 173.354C33.6973 174.233 34.0312 175.593 34.0488 177.433V179.542ZM32.4229 177.318C32.4229 175.941 32.2295 174.939 31.8428 174.312C31.4561 173.68 30.8438 173.363 30.0059 173.363C29.1738 173.363 28.5674 173.677 28.1865 174.304C27.8057 174.931 27.6094 175.895 27.5977 177.195V179.797C27.5977 181.18 27.7969 182.202 28.1953 182.864C28.5996 183.521 29.209 183.849 30.0234 183.849C30.8262 183.849 31.4209 183.538 31.8076 182.917C32.2002 182.296 32.4053 181.317 32.4229 179.981V177.318ZM44.1562 179.542C44.1562 181.446 43.8311 182.861 43.1807 183.787C42.5303 184.713 41.5137 185.176 40.1309 185.176C38.7656 185.176 37.7549 184.725 37.0986 183.822C36.4424 182.914 36.1025 181.561 36.0791 179.762V177.591C36.0791 175.71 36.4043 174.312 37.0547 173.398C37.7051 172.484 38.7246 172.027 40.1133 172.027C41.4902 172.027 42.5039 172.47 43.1543 173.354C43.8047 174.233 44.1387 175.593 44.1562 177.433V179.542ZM42.5303 177.318C42.5303 175.941 42.3369 174.939 41.9502 174.312C41.5635 173.68 40.9512 173.363 40.1133 173.363C39.2812 173.363 38.6748 173.677 38.2939 174.304C37.9131 174.931 37.7168 175.895 37.7051 177.195V179.797C37.7051 181.18 37.9043 182.202 38.3027 182.864C38.707 183.521 39.3164 183.849 40.1309 183.849C40.9336 183.849 41.5283 183.538 41.915 182.917C42.3076 182.296 42.5127 181.317 42.5303 179.981V177.318ZM46.4414 184.147C46.4414 183.866 46.5234 183.632 46.6875 183.444C46.8574 183.257 47.1094 183.163 47.4434 183.163C47.7773 183.163 48.0293 183.257 48.1992 183.444C48.375 183.632 48.4629 183.866 48.4629 184.147C48.4629 184.417 48.375 184.643 48.1992 184.824C48.0293 185.006 47.7773 185.097 47.4434 185.097C47.1094 185.097 46.8574 185.006 46.6875 184.824C46.5234 184.643 46.4414 184.417 46.4414 184.147ZM59.0098 179.542C59.0098 181.446 58.6846 182.861 58.0342 183.787C57.3838 184.713 56.3672 185.176 54.9844 185.176C53.6191 185.176 52.6084 184.725 51.9521 183.822C51.2959 182.914 50.9561 181.561 50.9326 179.762V177.591C50.9326 175.71 51.2578 174.312 51.9082 173.398C52.5586 172.484 53.5781 172.027 54.9668 172.027C56.3438 172.027 57.3574 172.47 58.0078 173.354C58.6582 174.233 58.9922 175.593 59.0098 177.433V179.542ZM57.3838 177.318C57.3838 175.941 57.1904 174.939 56.8037 174.312C56.417 173.68 55.8047 173.363 54.9668 173.363C54.1348 173.363 53.5283 173.677 53.1475 174.304C52.7666 174.931 52.5703 175.895 52.5586 177.195V179.797C52.5586 181.18 52.7578 182.202 53.1562 182.864C53.5605 183.521 54.1699 183.849 54.9844 183.849C55.7871 183.849 56.3818 183.538 56.7686 182.917C57.1611 182.296 57.3662 181.317 57.3838 179.981V177.318ZM69.1172 179.542C69.1172 181.446 68.792 182.861 68.1416 183.787C67.4912 184.713 66.4746 185.176 65.0918 185.176C63.7266 185.176 62.7158 184.725 62.0596 183.822C61.4033 182.914 61.0635 181.561 61.04 179.762V177.591C61.04 175.71 61.3652 174.312 62.0156 173.398C62.666 172.484 63.6855 172.027 65.0742 172.027C66.4512 172.027 67.4648 172.47 68.1152 173.354C68.7656 174.233 69.0996 175.593 69.1172 177.433V179.542ZM67.4912 177.318C67.4912 175.941 67.2979 174.939 66.9111 174.312C66.5244 173.68 65.9121 173.363 65.0742 173.363C64.2422 173.363 63.6357 173.677 63.2549 174.304C62.874 174.931 62.6777 175.895 62.666 177.195V179.797C62.666 181.18 62.8652 182.202 63.2637 182.864C63.668 183.521 64.2773 183.849 65.0918 183.849C65.8945 183.849 66.4893 183.538 66.876 182.917C67.2686 182.296 67.4736 181.317 67.4912 179.981V177.318ZM79.2246 179.542C79.2246 181.446 78.8994 182.861 78.249 183.787C77.5986 184.713 76.582 185.176 75.1992 185.176C73.834 185.176 72.8232 184.725 72.167 183.822C71.5107 182.914 71.1709 181.561 71.1475 179.762V177.591C71.1475 175.71 71.4727 174.312 72.123 173.398C72.7734 172.484 73.793 172.027 75.1816 172.027C76.5586 172.027 77.5723 172.47 78.2227 173.354C78.873 174.233 79.207 175.593 79.2246 177.433V179.542ZM77.5986 177.318C77.5986 175.941 77.4053 174.939 77.0186 174.312C76.6318 173.68 76.0195 173.363 75.1816 173.363C74.3496 173.363 73.7432 173.677 73.3623 174.304C72.9814 174.931 72.7852 175.895 72.7734 177.195V179.797C72.7734 181.18 72.9727 182.202 73.3711 182.864C73.7754 183.521 74.3848 183.849 75.1992 183.849C76.002 183.849 76.5967 183.538 76.9834 182.917C77.376 182.296 77.5811 181.317 77.5986 179.981V177.318ZM81.5098 184.147C81.5098 183.866 81.5918 183.632 81.7559 183.444C81.9258 183.257 82.1777 183.163 82.5117 183.163C82.8457 183.163 83.0977 183.257 83.2676 183.444C83.4434 183.632 83.5312 183.866 83.5312 184.147C83.5312 184.417 83.4434 184.643 83.2676 184.824C83.0977 185.006 82.8457 185.097 82.5117 185.097C82.1777 185.097 81.9258 185.006 81.7559 184.824C81.5918 184.643 81.5098 184.417 81.5098 184.147ZM94.0781 179.542C94.0781 181.446 93.7529 182.861 93.1025 183.787C92.4521 184.713 91.4355 185.176 90.0527 185.176C88.6875 185.176 87.6768 184.725 87.0205 183.822C86.3643 182.914 86.0244 181.561 86.001 179.762V177.591C86.001 175.71 86.3262 174.312 86.9766 173.398C87.627 172.484 88.6465 172.027 90.0352 172.027C91.4121 172.027 92.4258 172.47 93.0762 173.354C93.7266 174.233 94.0605 175.593 94.0781 177.433V179.542ZM92.4521 177.318C92.4521 175.941 92.2588 174.939 91.8721 174.312C91.4854 173.68 90.873 173.363 90.0352 173.363C89.2031 173.363 88.5967 173.677 88.2158 174.304C87.835 174.931 87.6387 175.895 87.627 177.195V179.797C87.627 181.18 87.8262 182.202 88.2246 182.864C88.6289 183.521 89.2383 183.849 90.0527 183.849C90.8555 183.849 91.4502 183.538 91.8369 182.917C92.2295 182.296 92.4346 181.317 92.4521 179.981V177.318ZM104.186 179.542C104.186 181.446 103.86 182.861 103.21 183.787C102.56 184.713 101.543 185.176 100.16 185.176C98.7949 185.176 97.7842 184.725 97.1279 183.822C96.4717 182.914 96.1318 181.561 96.1084 179.762V177.591C96.1084 175.71 96.4336 174.312 97.084 173.398C97.7344 172.484 98.7539 172.027 100.143 172.027C101.52 172.027 102.533 172.47 103.184 173.354C103.834 174.233 104.168 175.593 104.186 177.433V179.542ZM102.56 177.318C102.56 175.941 102.366 174.939 101.979 174.312C101.593 173.68 100.98 173.363 100.143 173.363C99.3105 173.363 98.7041 173.677 98.3232 174.304C97.9424 174.931 97.7461 175.895 97.7344 177.195V179.797C97.7344 181.18 97.9336 182.202 98.332 182.864C98.7363 183.521 99.3457 183.849 100.16 183.849C100.963 183.849 101.558 183.538 101.944 182.917C102.337 182.296 102.542 181.317 102.56 179.981V177.318ZM114.293 179.542C114.293 181.446 113.968 182.861 113.317 183.787C112.667 184.713 111.65 185.176 110.268 185.176C108.902 185.176 107.892 184.725 107.235 183.822C106.579 182.914 106.239 181.561 106.216 179.762V177.591C106.216 175.71 106.541 174.312 107.191 173.398C107.842 172.484 108.861 172.027 110.25 172.027C111.627 172.027 112.641 172.47 113.291 173.354C113.941 174.233 114.275 175.593 114.293 177.433V179.542ZM112.667 177.318C112.667 175.941 112.474 174.939 112.087 174.312C111.7 173.68 111.088 173.363 110.25 173.363C109.418 173.363 108.812 173.677 108.431 174.304C108.05 174.931 107.854 175.895 107.842 177.195V179.797C107.842 181.18 108.041 182.202 108.439 182.864C108.844 183.521 109.453 183.849 110.268 183.849C111.07 183.849 111.665 183.538 112.052 182.917C112.444 182.296 112.649 181.317 112.667 179.981V177.318ZM120.621 180.166C120.621 178.684 120.964 177.506 121.649 176.633C122.335 175.754 123.243 175.314 124.374 175.314C125.534 175.314 126.439 175.725 127.09 176.545L127.169 175.49H128.654V184.771C128.654 186.002 128.288 186.972 127.556 187.681C126.829 188.39 125.851 188.744 124.62 188.744C123.935 188.744 123.264 188.598 122.607 188.305C121.951 188.012 121.45 187.61 121.104 187.101L121.948 186.125C122.646 186.986 123.498 187.417 124.506 187.417C125.297 187.417 125.912 187.194 126.352 186.749C126.797 186.304 127.02 185.677 127.02 184.868V184.051C126.369 184.801 125.481 185.176 124.356 185.176C123.243 185.176 122.341 184.728 121.649 183.831C120.964 182.935 120.621 181.713 120.621 180.166ZM122.256 180.351C122.256 181.423 122.476 182.267 122.915 182.882C123.354 183.491 123.97 183.796 124.761 183.796C125.786 183.796 126.539 183.33 127.02 182.398V178.057C126.521 177.148 125.774 176.694 124.778 176.694C123.987 176.694 123.369 177.002 122.924 177.617C122.479 178.232 122.256 179.144 122.256 180.351ZM136.986 184.06C136.354 184.804 135.425 185.176 134.2 185.176C133.187 185.176 132.413 184.883 131.88 184.297C131.353 183.705 131.086 182.832 131.08 181.678V175.49H132.706V181.634C132.706 183.075 133.292 183.796 134.464 183.796C135.706 183.796 136.532 183.333 136.942 182.407V175.49H138.568V185H137.021L136.986 184.06ZM144.993 185.176C143.704 185.176 142.655 184.754 141.847 183.91C141.038 183.061 140.634 181.927 140.634 180.509V180.21C140.634 179.267 140.812 178.426 141.17 177.688C141.533 176.943 142.037 176.363 142.682 175.947C143.332 175.525 144.035 175.314 144.791 175.314C146.027 175.314 146.988 175.722 147.674 176.536C148.359 177.351 148.702 178.517 148.702 180.034V180.711H142.26C142.283 181.648 142.556 182.407 143.077 182.987C143.604 183.562 144.272 183.849 145.081 183.849C145.655 183.849 146.142 183.731 146.54 183.497C146.938 183.263 147.287 182.952 147.586 182.565L148.579 183.339C147.782 184.563 146.587 185.176 144.993 185.176ZM144.791 176.65C144.135 176.65 143.584 176.891 143.139 177.371C142.693 177.846 142.418 178.514 142.312 179.375H147.076V179.252C147.029 178.426 146.807 177.787 146.408 177.336C146.01 176.879 145.471 176.65 144.791 176.65ZM156.129 182.478C156.129 182.038 155.962 181.698 155.628 181.458C155.3 181.212 154.723 181.001 153.896 180.825C153.076 180.649 152.423 180.438 151.937 180.192C151.456 179.946 151.099 179.653 150.864 179.313C150.636 178.974 150.521 178.569 150.521 178.101C150.521 177.321 150.85 176.662 151.506 176.123C152.168 175.584 153.012 175.314 154.037 175.314C155.115 175.314 155.988 175.593 156.656 176.149C157.33 176.706 157.667 177.418 157.667 178.285H156.032C156.032 177.84 155.842 177.456 155.461 177.134C155.086 176.812 154.611 176.65 154.037 176.65C153.445 176.65 152.982 176.779 152.648 177.037C152.314 177.295 152.147 177.632 152.147 178.048C152.147 178.44 152.303 178.736 152.613 178.936C152.924 179.135 153.483 179.325 154.292 179.507C155.106 179.688 155.766 179.905 156.27 180.157C156.773 180.409 157.146 180.714 157.386 181.071C157.632 181.423 157.755 181.854 157.755 182.363C157.755 183.213 157.415 183.896 156.735 184.411C156.056 184.921 155.174 185.176 154.09 185.176C153.328 185.176 152.654 185.041 152.068 184.771C151.482 184.502 151.022 184.127 150.688 183.646C150.36 183.16 150.196 182.636 150.196 182.073H151.822C151.852 182.618 152.068 183.052 152.473 183.374C152.883 183.69 153.422 183.849 154.09 183.849C154.705 183.849 155.197 183.726 155.566 183.479C155.941 183.228 156.129 182.894 156.129 182.478ZM165.41 182.478C165.41 182.038 165.243 181.698 164.909 181.458C164.581 181.212 164.004 181.001 163.178 180.825C162.357 180.649 161.704 180.438 161.218 180.192C160.737 179.946 160.38 179.653 160.146 179.313C159.917 178.974 159.803 178.569 159.803 178.101C159.803 177.321 160.131 176.662 160.787 176.123C161.449 175.584 162.293 175.314 163.318 175.314C164.396 175.314 165.27 175.593 165.938 176.149C166.611 176.706 166.948 177.418 166.948 178.285H165.313C165.313 177.84 165.123 177.456 164.742 177.134C164.367 176.812 163.893 176.65 163.318 176.65C162.727 176.65 162.264 176.779 161.93 177.037C161.596 177.295 161.429 177.632 161.429 178.048C161.429 178.44 161.584 178.736 161.895 178.936C162.205 179.135 162.765 179.325 163.573 179.507C164.388 179.688 165.047 179.905 165.551 180.157C166.055 180.409 166.427 180.714 166.667 181.071C166.913 181.423 167.036 181.854 167.036 182.363C167.036 183.213 166.696 183.896 166.017 184.411C165.337 184.921 164.455 185.176 163.371 185.176C162.609 185.176 161.936 185.041 161.35 184.771C160.764 184.502 160.304 184.127 159.97 183.646C159.642 183.16 159.478 182.636 159.478 182.073H161.104C161.133 182.618 161.35 183.052 161.754 183.374C162.164 183.69 162.703 183.849 163.371 183.849C163.986 183.849 164.479 183.726 164.848 183.479C165.223 183.228 165.41 182.894 165.41 182.478ZM173.101 185.176C171.812 185.176 170.763 184.754 169.954 183.91C169.146 183.061 168.741 181.927 168.741 180.509V180.21C168.741 179.267 168.92 178.426 169.277 177.688C169.641 176.943 170.145 176.363 170.789 175.947C171.439 175.525 172.143 175.314 172.898 175.314C174.135 175.314 175.096 175.722 175.781 176.536C176.467 177.351 176.81 178.517 176.81 180.034V180.711H170.367C170.391 181.648 170.663 182.407 171.185 182.987C171.712 183.562 172.38 183.849 173.188 183.849C173.763 183.849 174.249 183.731 174.647 183.497C175.046 183.263 175.395 182.952 175.693 182.565L176.687 183.339C175.89 184.563 174.694 185.176 173.101 185.176ZM172.898 176.65C172.242 176.65 171.691 176.891 171.246 177.371C170.801 177.846 170.525 178.514 170.42 179.375H175.184V179.252C175.137 178.426 174.914 177.787 174.516 177.336C174.117 176.879 173.578 176.65 172.898 176.65ZM184.236 182.478C184.236 182.038 184.069 181.698 183.735 181.458C183.407 181.212 182.83 181.001 182.004 180.825C181.184 180.649 180.53 180.438 180.044 180.192C179.563 179.946 179.206 179.653 178.972 179.313C178.743 178.974 178.629 178.569 178.629 178.101C178.629 177.321 178.957 176.662 179.613 176.123C180.275 175.584 181.119 175.314 182.145 175.314C183.223 175.314 184.096 175.593 184.764 176.149C185.438 176.706 185.774 177.418 185.774 178.285H184.14C184.14 177.84 183.949 177.456 183.568 177.134C183.193 176.812 182.719 176.65 182.145 176.65C181.553 176.65 181.09 176.779 180.756 177.037C180.422 177.295 180.255 177.632 180.255 178.048C180.255 178.44 180.41 178.736 180.721 178.936C181.031 179.135 181.591 179.325 182.399 179.507C183.214 179.688 183.873 179.905 184.377 180.157C184.881 180.409 185.253 180.714 185.493 181.071C185.739 181.423 185.862 181.854 185.862 182.363C185.862 183.213 185.522 183.896 184.843 184.411C184.163 184.921 183.281 185.176 182.197 185.176C181.436 185.176 180.762 185.041 180.176 184.771C179.59 184.502 179.13 184.127 178.796 183.646C178.468 183.16 178.304 182.636 178.304 182.073H179.93C179.959 182.618 180.176 183.052 180.58 183.374C180.99 183.69 181.529 183.849 182.197 183.849C182.812 183.849 183.305 183.726 183.674 183.479C184.049 183.228 184.236 182.894 184.236 182.478Z" fill="white"/>
<path d="M217.407 97H215.772V86.1631L212.494 87.3672V85.8906L217.152 84.1416H217.407V97ZM230.195 91.542C230.195 93.4463 229.87 94.8613 229.22 95.7871C228.569 96.7129 227.553 97.1758 226.17 97.1758C224.805 97.1758 223.794 96.7246 223.138 95.8223C222.481 94.9141 222.142 93.5605 222.118 91.7617V89.5908C222.118 87.71 222.443 86.3125 223.094 85.3984C223.744 84.4844 224.764 84.0273 226.152 84.0273C227.529 84.0273 228.543 84.4697 229.193 85.3545C229.844 86.2334 230.178 87.5928 230.195 89.4326V91.542ZM228.569 89.3184C228.569 87.9414 228.376 86.9395 227.989 86.3125C227.603 85.6797 226.99 85.3633 226.152 85.3633C225.32 85.3633 224.714 85.6768 224.333 86.3037C223.952 86.9307 223.756 87.8945 223.744 89.1953V91.7969C223.744 93.1797 223.943 94.2021 224.342 94.8643C224.746 95.5205 225.355 95.8486 226.17 95.8486C226.973 95.8486 227.567 95.5381 227.954 94.917C228.347 94.2959 228.552 93.3174 228.569 91.9814V89.3184ZM240.303 91.542C240.303 93.4463 239.978 94.8613 239.327 95.7871C238.677 96.7129 237.66 97.1758 236.277 97.1758C234.912 97.1758 233.901 96.7246 233.245 95.8223C232.589 94.9141 232.249 93.5605 232.226 91.7617V89.5908C232.226 87.71 232.551 86.3125 233.201 85.3984C233.852 84.4844 234.871 84.0273 236.26 84.0273C237.637 84.0273 238.65 84.4697 239.301 85.3545C239.951 86.2334 240.285 87.5928 240.303 89.4326V91.542ZM238.677 89.3184C238.677 87.9414 238.483 86.9395 238.097 86.3125C237.71 85.6797 237.098 85.3633 236.26 85.3633C235.428 85.3633 234.821 85.6768 234.44 86.3037C234.06 86.9307 233.863 87.8945 233.852 89.1953V91.7969C233.852 93.1797 234.051 94.2021 234.449 94.8643C234.854 95.5205 235.463 95.8486 236.277 95.8486C237.08 95.8486 237.675 95.5381 238.062 94.917C238.454 94.2959 238.659 93.3174 238.677 91.9814V89.3184ZM248.784 97H247.158V87.4902H248.784V97ZM247.026 84.9678C247.026 84.7041 247.105 84.4814 247.264 84.2998C247.428 84.1182 247.668 84.0273 247.984 84.0273C248.301 84.0273 248.541 84.1182 248.705 84.2998C248.869 84.4814 248.951 84.7041 248.951 84.9678C248.951 85.2314 248.869 85.4512 248.705 85.627C248.541 85.8027 248.301 85.8906 247.984 85.8906C247.668 85.8906 247.428 85.8027 247.264 85.627C247.105 85.4512 247.026 85.2314 247.026 84.9678ZM253.601 85.1875V87.4902H255.376V88.7471H253.601V94.6445C253.601 95.0254 253.68 95.3125 253.838 95.5059C253.996 95.6934 254.266 95.7871 254.646 95.7871C254.834 95.7871 255.092 95.752 255.42 95.6816V97C254.992 97.1172 254.576 97.1758 254.172 97.1758C253.445 97.1758 252.897 96.9561 252.528 96.5166C252.159 96.0771 251.975 95.4531 251.975 94.6445V88.7471H250.243V87.4902H251.975V85.1875H253.601ZM261.229 97.1758C259.94 97.1758 258.892 96.7539 258.083 95.9102C257.274 95.0605 256.87 93.9268 256.87 92.5088V92.21C256.87 91.2666 257.049 90.4258 257.406 89.6875C257.77 88.9434 258.273 88.3633 258.918 87.9473C259.568 87.5254 260.271 87.3145 261.027 87.3145C262.264 87.3145 263.225 87.7217 263.91 88.5361C264.596 89.3506 264.938 90.5166 264.938 92.0342V92.7109H258.496C258.52 93.6484 258.792 94.4072 259.313 94.9873C259.841 95.5615 260.509 95.8486 261.317 95.8486C261.892 95.8486 262.378 95.7314 262.776 95.4971C263.175 95.2627 263.523 94.9521 263.822 94.5654L264.815 95.3389C264.019 96.5635 262.823 97.1758 261.229 97.1758ZM261.027 88.6504C260.371 88.6504 259.82 88.8906 259.375 89.3711C258.93 89.8457 258.654 90.5137 258.549 91.375H263.312V91.252C263.266 90.4258 263.043 89.7871 262.645 89.3359C262.246 88.8789 261.707 88.6504 261.027 88.6504ZM268.357 87.4902L268.401 88.5449C269.099 87.7246 270.039 87.3145 271.223 87.3145C272.553 87.3145 273.458 87.8242 273.938 88.8438C274.255 88.3867 274.665 88.0176 275.169 87.7363C275.679 87.4551 276.279 87.3145 276.971 87.3145C279.057 87.3145 280.117 88.4189 280.152 90.6279V97H278.526V90.7246C278.526 90.0449 278.371 89.5381 278.061 89.2041C277.75 88.8643 277.229 88.6943 276.496 88.6943C275.893 88.6943 275.392 88.876 274.993 89.2393C274.595 89.5967 274.363 90.0801 274.299 90.6895V97H272.664V90.7686C272.664 89.3857 271.987 88.6943 270.634 88.6943C269.567 88.6943 268.838 89.1484 268.445 90.0566V97H266.819V87.4902H268.357ZM288.15 94.4775C288.15 94.0381 287.983 93.6982 287.649 93.458C287.321 93.2119 286.744 93.001 285.918 92.8252C285.098 92.6494 284.444 92.4385 283.958 92.1924C283.478 91.9463 283.12 91.6533 282.886 91.3135C282.657 90.9736 282.543 90.5693 282.543 90.1006C282.543 89.3213 282.871 88.6621 283.527 88.123C284.189 87.584 285.033 87.3145 286.059 87.3145C287.137 87.3145 288.01 87.5928 288.678 88.1494C289.352 88.7061 289.688 89.418 289.688 90.2852H288.054C288.054 89.8398 287.863 89.4561 287.482 89.1338C287.107 88.8115 286.633 88.6504 286.059 88.6504C285.467 88.6504 285.004 88.7793 284.67 89.0371C284.336 89.2949 284.169 89.6318 284.169 90.0479C284.169 90.4404 284.324 90.7363 284.635 90.9355C284.945 91.1348 285.505 91.3252 286.313 91.5068C287.128 91.6885 287.787 91.9053 288.291 92.1572C288.795 92.4092 289.167 92.7139 289.407 93.0713C289.653 93.4229 289.776 93.8535 289.776 94.3633C289.776 95.2129 289.437 95.8955 288.757 96.4111C288.077 96.9209 287.195 97.1758 286.111 97.1758C285.35 97.1758 284.676 97.041 284.09 96.7715C283.504 96.502 283.044 96.127 282.71 95.6465C282.382 95.1602 282.218 94.6357 282.218 94.0732H283.844C283.873 94.6182 284.09 95.0518 284.494 95.374C284.904 95.6904 285.443 95.8486 286.111 95.8486C286.727 95.8486 287.219 95.7256 287.588 95.4795C287.963 95.2275 288.15 94.8936 288.15 94.4775ZM220.325 106.117L215.025 118H213.32L218.603 106.539H211.677V105.203H220.325V106.117ZM226.416 113.166C226.416 111.684 226.759 110.506 227.444 109.633C228.13 108.754 229.038 108.314 230.169 108.314C231.329 108.314 232.234 108.725 232.885 109.545L232.964 108.49H234.449V117.771C234.449 119.002 234.083 119.972 233.351 120.681C232.624 121.39 231.646 121.744 230.415 121.744C229.729 121.744 229.059 121.598 228.402 121.305C227.746 121.012 227.245 120.61 226.899 120.101L227.743 119.125C228.44 119.986 229.293 120.417 230.301 120.417C231.092 120.417 231.707 120.194 232.146 119.749C232.592 119.304 232.814 118.677 232.814 117.868V117.051C232.164 117.801 231.276 118.176 230.151 118.176C229.038 118.176 228.136 117.728 227.444 116.831C226.759 115.935 226.416 114.713 226.416 113.166ZM228.051 113.351C228.051 114.423 228.271 115.267 228.71 115.882C229.149 116.491 229.765 116.796 230.556 116.796C231.581 116.796 232.334 116.33 232.814 115.398V111.057C232.316 110.148 231.569 109.694 230.573 109.694C229.782 109.694 229.164 110.002 228.719 110.617C228.273 111.232 228.051 112.144 228.051 113.351ZM242.781 117.06C242.148 117.804 241.22 118.176 239.995 118.176C238.981 118.176 238.208 117.883 237.675 117.297C237.147 116.705 236.881 115.832 236.875 114.678V108.49H238.501V114.634C238.501 116.075 239.087 116.796 240.259 116.796C241.501 116.796 242.327 116.333 242.737 115.407V108.49H244.363V118H242.816L242.781 117.06ZM250.788 118.176C249.499 118.176 248.45 117.754 247.642 116.91C246.833 116.061 246.429 114.927 246.429 113.509V113.21C246.429 112.267 246.607 111.426 246.965 110.688C247.328 109.943 247.832 109.363 248.477 108.947C249.127 108.525 249.83 108.314 250.586 108.314C251.822 108.314 252.783 108.722 253.469 109.536C254.154 110.351 254.497 111.517 254.497 113.034V113.711H248.055C248.078 114.648 248.351 115.407 248.872 115.987C249.399 116.562 250.067 116.849 250.876 116.849C251.45 116.849 251.937 116.731 252.335 116.497C252.733 116.263 253.082 115.952 253.381 115.565L254.374 116.339C253.577 117.563 252.382 118.176 250.788 118.176ZM250.586 109.65C249.93 109.65 249.379 109.891 248.934 110.371C248.488 110.846 248.213 111.514 248.107 112.375H252.871V112.252C252.824 111.426 252.602 110.787 252.203 110.336C251.805 109.879 251.266 109.65 250.586 109.65ZM261.924 115.478C261.924 115.038 261.757 114.698 261.423 114.458C261.095 114.212 260.518 114.001 259.691 113.825C258.871 113.649 258.218 113.438 257.731 113.192C257.251 112.946 256.894 112.653 256.659 112.313C256.431 111.974 256.316 111.569 256.316 111.101C256.316 110.321 256.645 109.662 257.301 109.123C257.963 108.584 258.807 108.314 259.832 108.314C260.91 108.314 261.783 108.593 262.451 109.149C263.125 109.706 263.462 110.418 263.462 111.285H261.827C261.827 110.84 261.637 110.456 261.256 110.134C260.881 109.812 260.406 109.65 259.832 109.65C259.24 109.65 258.777 109.779 258.443 110.037C258.109 110.295 257.942 110.632 257.942 111.048C257.942 111.44 258.098 111.736 258.408 111.936C258.719 112.135 259.278 112.325 260.087 112.507C260.901 112.688 261.561 112.905 262.064 113.157C262.568 113.409 262.94 113.714 263.181 114.071C263.427 114.423 263.55 114.854 263.55 115.363C263.55 116.213 263.21 116.896 262.53 117.411C261.851 117.921 260.969 118.176 259.885 118.176C259.123 118.176 258.449 118.041 257.863 117.771C257.277 117.502 256.817 117.127 256.483 116.646C256.155 116.16 255.991 115.636 255.991 115.073H257.617C257.646 115.618 257.863 116.052 258.268 116.374C258.678 116.69 259.217 116.849 259.885 116.849C260.5 116.849 260.992 116.726 261.361 116.479C261.736 116.228 261.924 115.894 261.924 115.478ZM271.205 115.478C271.205 115.038 271.038 114.698 270.704 114.458C270.376 114.212 269.799 114.001 268.973 113.825C268.152 113.649 267.499 113.438 267.013 113.192C266.532 112.946 266.175 112.653 265.94 112.313C265.712 111.974 265.598 111.569 265.598 111.101C265.598 110.321 265.926 109.662 266.582 109.123C267.244 108.584 268.088 108.314 269.113 108.314C270.191 108.314 271.064 108.593 271.732 109.149C272.406 109.706 272.743 110.418 272.743 111.285H271.108C271.108 110.84 270.918 110.456 270.537 110.134C270.162 109.812 269.688 109.65 269.113 109.65C268.521 109.65 268.059 109.779 267.725 110.037C267.391 110.295 267.224 110.632 267.224 111.048C267.224 111.44 267.379 111.736 267.689 111.936C268 112.135 268.56 112.325 269.368 112.507C270.183 112.688 270.842 112.905 271.346 113.157C271.85 113.409 272.222 113.714 272.462 114.071C272.708 114.423 272.831 114.854 272.831 115.363C272.831 116.213 272.491 116.896 271.812 117.411C271.132 117.921 270.25 118.176 269.166 118.176C268.404 118.176 267.73 118.041 267.145 117.771C266.559 117.502 266.099 117.127 265.765 116.646C265.437 116.16 265.272 115.636 265.272 115.073H266.898C266.928 115.618 267.145 116.052 267.549 116.374C267.959 116.69 268.498 116.849 269.166 116.849C269.781 116.849 270.273 116.726 270.643 116.479C271.018 116.228 271.205 115.894 271.205 115.478ZM278.896 118.176C277.606 118.176 276.558 117.754 275.749 116.91C274.94 116.061 274.536 114.927 274.536 113.509V113.21C274.536 112.267 274.715 111.426 275.072 110.688C275.436 109.943 275.939 109.363 276.584 108.947C277.234 108.525 277.938 108.314 278.693 108.314C279.93 108.314 280.891 108.722 281.576 109.536C282.262 110.351 282.604 111.517 282.604 113.034V113.711H276.162C276.186 114.648 276.458 115.407 276.979 115.987C277.507 116.562 278.175 116.849 278.983 116.849C279.558 116.849 280.044 116.731 280.442 116.497C280.841 116.263 281.189 115.952 281.488 115.565L282.481 116.339C281.685 117.563 280.489 118.176 278.896 118.176ZM278.693 109.65C278.037 109.65 277.486 109.891 277.041 110.371C276.596 110.846 276.32 111.514 276.215 112.375H280.979V112.252C280.932 111.426 280.709 110.787 280.311 110.336C279.912 109.879 279.373 109.65 278.693 109.65ZM290.031 115.478C290.031 115.038 289.864 114.698 289.53 114.458C289.202 114.212 288.625 114.001 287.799 113.825C286.979 113.649 286.325 113.438 285.839 113.192C285.358 112.946 285.001 112.653 284.767 112.313C284.538 111.974 284.424 111.569 284.424 111.101C284.424 110.321 284.752 109.662 285.408 109.123C286.07 108.584 286.914 108.314 287.939 108.314C289.018 108.314 289.891 108.593 290.559 109.149C291.232 109.706 291.569 110.418 291.569 111.285H289.935C289.935 110.84 289.744 110.456 289.363 110.134C288.988 109.812 288.514 109.65 287.939 109.65C287.348 109.65 286.885 109.779 286.551 110.037C286.217 110.295 286.05 110.632 286.05 111.048C286.05 111.44 286.205 111.736 286.516 111.936C286.826 112.135 287.386 112.325 288.194 112.507C289.009 112.688 289.668 112.905 290.172 113.157C290.676 113.409 291.048 113.714 291.288 114.071C291.534 114.423 291.657 114.854 291.657 115.363C291.657 116.213 291.317 116.896 290.638 117.411C289.958 117.921 289.076 118.176 287.992 118.176C287.23 118.176 286.557 118.041 285.971 117.771C285.385 117.502 284.925 117.127 284.591 116.646C284.263 116.16 284.099 115.636 284.099 115.073H285.725C285.754 115.618 285.971 116.052 286.375 116.374C286.785 116.69 287.324 116.849 287.992 116.849C288.607 116.849 289.1 116.726 289.469 116.479C289.844 116.228 290.031 115.894 290.031 115.478Z" fill="white"/>
<path d="M218.928 159.702H220.703V161.029H218.928V164H217.293V161.029H211.466V160.071L217.196 151.203H218.928V159.702ZM213.312 159.702H217.293V153.427L217.1 153.778L213.312 159.702ZM222.373 163.147C222.373 162.866 222.455 162.632 222.619 162.444C222.789 162.257 223.041 162.163 223.375 162.163C223.709 162.163 223.961 162.257 224.131 162.444C224.307 162.632 224.395 162.866 224.395 163.147C224.395 163.417 224.307 163.643 224.131 163.824C223.961 164.006 223.709 164.097 223.375 164.097C223.041 164.097 222.789 164.006 222.619 163.824C222.455 163.643 222.373 163.417 222.373 163.147ZM234.941 158.542C234.941 160.446 234.616 161.861 233.966 162.787C233.315 163.713 232.299 164.176 230.916 164.176C229.551 164.176 228.54 163.725 227.884 162.822C227.228 161.914 226.888 160.561 226.864 158.762V156.591C226.864 154.71 227.189 153.312 227.84 152.398C228.49 151.484 229.51 151.027 230.898 151.027C232.275 151.027 233.289 151.47 233.939 152.354C234.59 153.233 234.924 154.593 234.941 156.433V158.542ZM233.315 156.318C233.315 154.941 233.122 153.939 232.735 153.312C232.349 152.68 231.736 152.363 230.898 152.363C230.066 152.363 229.46 152.677 229.079 153.304C228.698 153.931 228.502 154.895 228.49 156.195V158.797C228.49 160.18 228.689 161.202 229.088 161.864C229.492 162.521 230.102 162.849 230.916 162.849C231.719 162.849 232.313 162.538 232.7 161.917C233.093 161.296 233.298 160.317 233.315 158.981V156.318ZM245.049 158.542C245.049 160.446 244.724 161.861 244.073 162.787C243.423 163.713 242.406 164.176 241.023 164.176C239.658 164.176 238.647 163.725 237.991 162.822C237.335 161.914 236.995 160.561 236.972 158.762V156.591C236.972 154.71 237.297 153.312 237.947 152.398C238.598 151.484 239.617 151.027 241.006 151.027C242.383 151.027 243.396 151.47 244.047 152.354C244.697 153.233 245.031 154.593 245.049 156.433V158.542ZM243.423 156.318C243.423 154.941 243.229 153.939 242.843 153.312C242.456 152.68 241.844 152.363 241.006 152.363C240.174 152.363 239.567 152.677 239.187 153.304C238.806 153.931 238.609 154.895 238.598 156.195V158.797C238.598 160.18 238.797 161.202 239.195 161.864C239.6 162.521 240.209 162.849 241.023 162.849C241.826 162.849 242.421 162.538 242.808 161.917C243.2 161.296 243.405 160.317 243.423 158.981V156.318ZM255.156 158.542C255.156 160.446 254.831 161.861 254.181 162.787C253.53 163.713 252.514 164.176 251.131 164.176C249.766 164.176 248.755 163.725 248.099 162.822C247.442 161.914 247.103 160.561 247.079 158.762V156.591C247.079 154.71 247.404 153.312 248.055 152.398C248.705 151.484 249.725 151.027 251.113 151.027C252.49 151.027 253.504 151.47 254.154 152.354C254.805 153.233 255.139 154.593 255.156 156.433V158.542ZM253.53 156.318C253.53 154.941 253.337 153.939 252.95 153.312C252.563 152.68 251.951 152.363 251.113 152.363C250.281 152.363 249.675 152.677 249.294 153.304C248.913 153.931 248.717 154.895 248.705 156.195V158.797C248.705 160.18 248.904 161.202 249.303 161.864C249.707 162.521 250.316 162.849 251.131 162.849C251.934 162.849 252.528 162.538 252.915 161.917C253.308 161.296 253.513 160.317 253.53 158.981V156.318ZM257.441 163.147C257.441 162.866 257.523 162.632 257.688 162.444C257.857 162.257 258.109 162.163 258.443 162.163C258.777 162.163 259.029 162.257 259.199 162.444C259.375 162.632 259.463 162.866 259.463 163.147C259.463 163.417 259.375 163.643 259.199 163.824C259.029 164.006 258.777 164.097 258.443 164.097C258.109 164.097 257.857 164.006 257.688 163.824C257.523 163.643 257.441 163.417 257.441 163.147ZM270.01 158.542C270.01 160.446 269.685 161.861 269.034 162.787C268.384 163.713 267.367 164.176 265.984 164.176C264.619 164.176 263.608 163.725 262.952 162.822C262.296 161.914 261.956 160.561 261.933 158.762V156.591C261.933 154.71 262.258 153.312 262.908 152.398C263.559 151.484 264.578 151.027 265.967 151.027C267.344 151.027 268.357 151.47 269.008 152.354C269.658 153.233 269.992 154.593 270.01 156.433V158.542ZM268.384 156.318C268.384 154.941 268.19 153.939 267.804 153.312C267.417 152.68 266.805 152.363 265.967 152.363C265.135 152.363 264.528 152.677 264.147 153.304C263.767 153.931 263.57 154.895 263.559 156.195V158.797C263.559 160.18 263.758 161.202 264.156 161.864C264.561 162.521 265.17 162.849 265.984 162.849C266.787 162.849 267.382 162.538 267.769 161.917C268.161 161.296 268.366 160.317 268.384 158.981V156.318ZM280.117 158.542C280.117 160.446 279.792 161.861 279.142 162.787C278.491 163.713 277.475 164.176 276.092 164.176C274.727 164.176 273.716 163.725 273.06 162.822C272.403 161.914 272.063 160.561 272.04 158.762V156.591C272.04 154.71 272.365 153.312 273.016 152.398C273.666 151.484 274.686 151.027 276.074 151.027C277.451 151.027 278.465 151.47 279.115 152.354C279.766 153.233 280.1 154.593 280.117 156.433V158.542ZM278.491 156.318C278.491 154.941 278.298 153.939 277.911 153.312C277.524 152.68 276.912 152.363 276.074 152.363C275.242 152.363 274.636 152.677 274.255 153.304C273.874 153.931 273.678 154.895 273.666 156.195V158.797C273.666 160.18 273.865 161.202 274.264 161.864C274.668 162.521 275.277 162.849 276.092 162.849C276.895 162.849 277.489 162.538 277.876 161.917C278.269 161.296 278.474 160.317 278.491 158.981V156.318ZM290.225 158.542C290.225 160.446 289.899 161.861 289.249 162.787C288.599 163.713 287.582 164.176 286.199 164.176C284.834 164.176 283.823 163.725 283.167 162.822C282.511 161.914 282.171 160.561 282.147 158.762V156.591C282.147 154.71 282.473 153.312 283.123 152.398C283.773 151.484 284.793 151.027 286.182 151.027C287.559 151.027 288.572 151.47 289.223 152.354C289.873 153.233 290.207 154.593 290.225 156.433V158.542ZM288.599 156.318C288.599 154.941 288.405 153.939 288.019 153.312C287.632 152.68 287.02 152.363 286.182 152.363C285.35 152.363 284.743 152.677 284.362 153.304C283.981 153.931 283.785 154.895 283.773 156.195V158.797C283.773 160.18 283.973 161.202 284.371 161.864C284.775 162.521 285.385 162.849 286.199 162.849C287.002 162.849 287.597 162.538 287.983 161.917C288.376 161.296 288.581 160.317 288.599 158.981V156.318ZM292.51 163.147C292.51 162.866 292.592 162.632 292.756 162.444C292.926 162.257 293.178 162.163 293.512 162.163C293.846 162.163 294.098 162.257 294.268 162.444C294.443 162.632 294.531 162.866 294.531 163.147C294.531 163.417 294.443 163.643 294.268 163.824C294.098 164.006 293.846 164.097 293.512 164.097C293.178 164.097 292.926 164.006 292.756 163.824C292.592 163.643 292.51 163.417 292.51 163.147ZM305.078 158.542C305.078 160.446 304.753 161.861 304.103 162.787C303.452 163.713 302.436 164.176 301.053 164.176C299.688 164.176 298.677 163.725 298.021 162.822C297.364 161.914 297.024 160.561 297.001 158.762V156.591C297.001 154.71 297.326 153.312 297.977 152.398C298.627 151.484 299.646 151.027 301.035 151.027C302.412 151.027 303.426 151.47 304.076 152.354C304.727 153.233 305.061 154.593 305.078 156.433V158.542ZM303.452 156.318C303.452 154.941 303.259 153.939 302.872 153.312C302.485 152.68 301.873 152.363 301.035 152.363C300.203 152.363 299.597 152.677 299.216 153.304C298.835 153.931 298.639 154.895 298.627 156.195V158.797C298.627 160.18 298.826 161.202 299.225 161.864C299.629 162.521 300.238 162.849 301.053 162.849C301.855 162.849 302.45 162.538 302.837 161.917C303.229 161.296 303.435 160.317 303.452 158.981V156.318ZM315.186 158.542C315.186 160.446 314.86 161.861 314.21 162.787C313.56 163.713 312.543 164.176 311.16 164.176C309.795 164.176 308.784 163.725 308.128 162.822C307.472 161.914 307.132 160.561 307.108 158.762V156.591C307.108 154.71 307.434 153.312 308.084 152.398C308.734 151.484 309.754 151.027 311.143 151.027C312.52 151.027 313.533 151.47 314.184 152.354C314.834 153.233 315.168 154.593 315.186 156.433V158.542ZM313.56 156.318C313.56 154.941 313.366 153.939 312.979 153.312C312.593 152.68 311.98 152.363 311.143 152.363C310.311 152.363 309.704 152.677 309.323 153.304C308.942 153.931 308.746 154.895 308.734 156.195V158.797C308.734 160.18 308.934 161.202 309.332 161.864C309.736 162.521 310.346 162.849 311.16 162.849C311.963 162.849 312.558 162.538 312.944 161.917C313.337 161.296 313.542 160.317 313.56 158.981V156.318ZM325.293 158.542C325.293 160.446 324.968 161.861 324.317 162.787C323.667 163.713 322.65 164.176 321.268 164.176C319.902 164.176 318.892 163.725 318.235 162.822C317.579 161.914 317.239 160.561 317.216 158.762V156.591C317.216 154.71 317.541 153.312 318.191 152.398C318.842 151.484 319.861 151.027 321.25 151.027C322.627 151.027 323.641 151.47 324.291 152.354C324.941 153.233 325.275 154.593 325.293 156.433V158.542ZM323.667 156.318C323.667 154.941 323.474 153.939 323.087 153.312C322.7 152.68 322.088 152.363 321.25 152.363C320.418 152.363 319.812 152.677 319.431 153.304C319.05 153.931 318.854 154.895 318.842 156.195V158.797C318.842 160.18 319.041 161.202 319.439 161.864C319.844 162.521 320.453 162.849 321.268 162.849C322.07 162.849 322.665 162.538 323.052 161.917C323.444 161.296 323.649 160.317 323.667 158.981V156.318ZM333.774 164H332.148V154.49H333.774V164ZM332.017 151.968C332.017 151.704 332.096 151.481 332.254 151.3C332.418 151.118 332.658 151.027 332.975 151.027C333.291 151.027 333.531 151.118 333.695 151.3C333.859 151.481 333.941 151.704 333.941 151.968C333.941 152.231 333.859 152.451 333.695 152.627C333.531 152.803 333.291 152.891 332.975 152.891C332.658 152.891 332.418 152.803 332.254 152.627C332.096 152.451 332.017 152.231 332.017 151.968ZM338.591 152.188V154.49H340.366V155.747H338.591V161.645C338.591 162.025 338.67 162.312 338.828 162.506C338.986 162.693 339.256 162.787 339.637 162.787C339.824 162.787 340.082 162.752 340.41 162.682V164C339.982 164.117 339.566 164.176 339.162 164.176C338.436 164.176 337.888 163.956 337.519 163.517C337.149 163.077 336.965 162.453 336.965 161.645V155.747H335.233V154.49H336.965V152.188H338.591ZM346.22 164.176C344.931 164.176 343.882 163.754 343.073 162.91C342.265 162.061 341.86 160.927 341.86 159.509V159.21C341.86 158.267 342.039 157.426 342.396 156.688C342.76 155.943 343.264 155.363 343.908 154.947C344.559 154.525 345.262 154.314 346.018 154.314C347.254 154.314 348.215 154.722 348.9 155.536C349.586 156.351 349.929 157.517 349.929 159.034V159.711H343.486C343.51 160.648 343.782 161.407 344.304 161.987C344.831 162.562 345.499 162.849 346.308 162.849C346.882 162.849 347.368 162.731 347.767 162.497C348.165 162.263 348.514 161.952 348.812 161.565L349.806 162.339C349.009 163.563 347.813 164.176 346.22 164.176ZM346.018 155.65C345.361 155.65 344.811 155.891 344.365 156.371C343.92 156.846 343.645 157.514 343.539 158.375H348.303V158.252C348.256 157.426 348.033 156.787 347.635 156.336C347.236 155.879 346.697 155.65 346.018 155.65ZM353.348 154.49L353.392 155.545C354.089 154.725 355.029 154.314 356.213 154.314C357.543 154.314 358.448 154.824 358.929 155.844C359.245 155.387 359.655 155.018 360.159 154.736C360.669 154.455 361.27 154.314 361.961 154.314C364.047 154.314 365.107 155.419 365.143 157.628V164H363.517V157.725C363.517 157.045 363.361 156.538 363.051 156.204C362.74 155.864 362.219 155.694 361.486 155.694C360.883 155.694 360.382 155.876 359.983 156.239C359.585 156.597 359.354 157.08 359.289 157.689V164H357.654V157.769C357.654 156.386 356.978 155.694 355.624 155.694C354.558 155.694 353.828 156.148 353.436 157.057V164H351.81V154.49H353.348ZM373.141 161.478C373.141 161.038 372.974 160.698 372.64 160.458C372.312 160.212 371.734 160.001 370.908 159.825C370.088 159.649 369.435 159.438 368.948 159.192C368.468 158.946 368.11 158.653 367.876 158.313C367.647 157.974 367.533 157.569 367.533 157.101C367.533 156.321 367.861 155.662 368.518 155.123C369.18 154.584 370.023 154.314 371.049 154.314C372.127 154.314 373 154.593 373.668 155.149C374.342 155.706 374.679 156.418 374.679 157.285H373.044C373.044 156.84 372.854 156.456 372.473 156.134C372.098 155.812 371.623 155.65 371.049 155.65C370.457 155.65 369.994 155.779 369.66 156.037C369.326 156.295 369.159 156.632 369.159 157.048C369.159 157.44 369.314 157.736 369.625 157.936C369.936 158.135 370.495 158.325 371.304 158.507C372.118 158.688 372.777 158.905 373.281 159.157C373.785 159.409 374.157 159.714 374.397 160.071C374.644 160.423 374.767 160.854 374.767 161.363C374.767 162.213 374.427 162.896 373.747 163.411C373.067 163.921 372.186 164.176 371.102 164.176C370.34 164.176 369.666 164.041 369.08 163.771C368.494 163.502 368.034 163.127 367.7 162.646C367.372 162.16 367.208 161.636 367.208 161.073H368.834C368.863 161.618 369.08 162.052 369.484 162.374C369.895 162.69 370.434 162.849 371.102 162.849C371.717 162.849 372.209 162.726 372.578 162.479C372.953 162.228 373.141 161.894 373.141 161.478ZM214.428 177.811H215.649C216.417 177.799 217.021 177.597 217.46 177.204C217.899 176.812 218.119 176.281 218.119 175.613C218.119 174.113 217.372 173.363 215.878 173.363C215.175 173.363 214.612 173.565 214.19 173.97C213.774 174.368 213.566 174.898 213.566 175.561H211.94C211.94 174.547 212.31 173.706 213.048 173.038C213.792 172.364 214.735 172.027 215.878 172.027C217.085 172.027 218.031 172.347 218.717 172.985C219.402 173.624 219.745 174.512 219.745 175.648C219.745 176.205 219.563 176.744 219.2 177.266C218.843 177.787 218.354 178.177 217.732 178.435C218.436 178.657 218.978 179.026 219.358 179.542C219.745 180.058 219.938 180.688 219.938 181.432C219.938 182.58 219.563 183.491 218.813 184.165C218.063 184.839 217.088 185.176 215.887 185.176C214.686 185.176 213.707 184.851 212.951 184.2C212.201 183.55 211.826 182.691 211.826 181.625H213.461C213.461 182.299 213.681 182.838 214.12 183.242C214.56 183.646 215.148 183.849 215.887 183.849C216.672 183.849 217.272 183.644 217.688 183.233C218.104 182.823 218.312 182.234 218.312 181.467C218.312 180.723 218.084 180.151 217.627 179.753C217.17 179.354 216.511 179.149 215.649 179.138H214.428V177.811ZM230.556 185H222.171V183.831L226.601 178.909C227.257 178.165 227.708 177.562 227.954 177.099C228.206 176.63 228.332 176.146 228.332 175.648C228.332 174.98 228.13 174.433 227.726 174.005C227.321 173.577 226.782 173.363 226.108 173.363C225.3 173.363 224.67 173.595 224.219 174.058C223.773 174.515 223.551 175.153 223.551 175.974H221.925C221.925 174.796 222.303 173.844 223.059 173.117C223.82 172.391 224.837 172.027 226.108 172.027C227.298 172.027 228.238 172.341 228.93 172.968C229.621 173.589 229.967 174.418 229.967 175.455C229.967 176.715 229.164 178.215 227.559 179.955L224.131 183.673H230.556V185ZM236.523 180.166C236.523 178.684 236.866 177.506 237.552 176.633C238.237 175.754 239.146 175.314 240.276 175.314C241.437 175.314 242.342 175.725 242.992 176.545L243.071 175.49H244.557V184.771C244.557 186.002 244.19 186.972 243.458 187.681C242.731 188.39 241.753 188.744 240.522 188.744C239.837 188.744 239.166 188.598 238.51 188.305C237.854 188.012 237.353 187.61 237.007 187.101L237.851 186.125C238.548 186.986 239.4 187.417 240.408 187.417C241.199 187.417 241.814 187.194 242.254 186.749C242.699 186.304 242.922 185.677 242.922 184.868V184.051C242.271 184.801 241.384 185.176 240.259 185.176C239.146 185.176 238.243 184.728 237.552 183.831C236.866 182.935 236.523 181.713 236.523 180.166ZM238.158 180.351C238.158 181.423 238.378 182.267 238.817 182.882C239.257 183.491 239.872 183.796 240.663 183.796C241.688 183.796 242.441 183.33 242.922 182.398V178.057C242.424 177.148 241.677 176.694 240.681 176.694C239.89 176.694 239.271 177.002 238.826 177.617C238.381 178.232 238.158 179.144 238.158 180.351ZM252.889 184.06C252.256 184.804 251.327 185.176 250.103 185.176C249.089 185.176 248.315 184.883 247.782 184.297C247.255 183.705 246.988 182.832 246.982 181.678V175.49H248.608V181.634C248.608 183.075 249.194 183.796 250.366 183.796C251.608 183.796 252.435 183.333 252.845 182.407V175.49H254.471V185H252.924L252.889 184.06ZM260.896 185.176C259.606 185.176 258.558 184.754 257.749 183.91C256.94 183.061 256.536 181.927 256.536 180.509V180.21C256.536 179.267 256.715 178.426 257.072 177.688C257.436 176.943 257.939 176.363 258.584 175.947C259.234 175.525 259.938 175.314 260.693 175.314C261.93 175.314 262.891 175.722 263.576 176.536C264.262 177.351 264.604 178.517 264.604 180.034V180.711H258.162C258.186 181.648 258.458 182.407 258.979 182.987C259.507 183.562 260.175 183.849 260.983 183.849C261.558 183.849 262.044 183.731 262.442 183.497C262.841 183.263 263.189 182.952 263.488 182.565L264.481 183.339C263.685 184.563 262.489 185.176 260.896 185.176ZM260.693 176.65C260.037 176.65 259.486 176.891 259.041 177.371C258.596 177.846 258.32 178.514 258.215 179.375H262.979V179.252C262.932 178.426 262.709 177.787 262.311 177.336C261.912 176.879 261.373 176.65 260.693 176.65ZM272.031 182.478C272.031 182.038 271.864 181.698 271.53 181.458C271.202 181.212 270.625 181.001 269.799 180.825C268.979 180.649 268.325 180.438 267.839 180.192C267.358 179.946 267.001 179.653 266.767 179.313C266.538 178.974 266.424 178.569 266.424 178.101C266.424 177.321 266.752 176.662 267.408 176.123C268.07 175.584 268.914 175.314 269.939 175.314C271.018 175.314 271.891 175.593 272.559 176.149C273.232 176.706 273.569 177.418 273.569 178.285H271.935C271.935 177.84 271.744 177.456 271.363 177.134C270.988 176.812 270.514 176.65 269.939 176.65C269.348 176.65 268.885 176.779 268.551 177.037C268.217 177.295 268.05 177.632 268.05 178.048C268.05 178.44 268.205 178.736 268.516 178.936C268.826 179.135 269.386 179.325 270.194 179.507C271.009 179.688 271.668 179.905 272.172 180.157C272.676 180.409 273.048 180.714 273.288 181.071C273.534 181.423 273.657 181.854 273.657 182.363C273.657 183.213 273.317 183.896 272.638 184.411C271.958 184.921 271.076 185.176 269.992 185.176C269.23 185.176 268.557 185.041 267.971 184.771C267.385 184.502 266.925 184.127 266.591 183.646C266.263 183.16 266.099 182.636 266.099 182.073H267.725C267.754 182.618 267.971 183.052 268.375 183.374C268.785 183.69 269.324 183.849 269.992 183.849C270.607 183.849 271.1 183.726 271.469 183.479C271.844 183.228 272.031 182.894 272.031 182.478ZM281.312 182.478C281.312 182.038 281.146 181.698 280.812 181.458C280.483 181.212 279.906 181.001 279.08 180.825C278.26 180.649 277.606 180.438 277.12 180.192C276.64 179.946 276.282 179.653 276.048 179.313C275.819 178.974 275.705 178.569 275.705 178.101C275.705 177.321 276.033 176.662 276.689 176.123C277.352 175.584 278.195 175.314 279.221 175.314C280.299 175.314 281.172 175.593 281.84 176.149C282.514 176.706 282.851 177.418 282.851 178.285H281.216C281.216 177.84 281.025 177.456 280.645 177.134C280.27 176.812 279.795 176.65 279.221 176.65C278.629 176.65 278.166 176.779 277.832 177.037C277.498 177.295 277.331 177.632 277.331 178.048C277.331 178.44 277.486 178.736 277.797 178.936C278.107 179.135 278.667 179.325 279.476 179.507C280.29 179.688 280.949 179.905 281.453 180.157C281.957 180.409 282.329 180.714 282.569 181.071C282.815 181.423 282.938 181.854 282.938 182.363C282.938 183.213 282.599 183.896 281.919 184.411C281.239 184.921 280.357 185.176 279.273 185.176C278.512 185.176 277.838 185.041 277.252 184.771C276.666 184.502 276.206 184.127 275.872 183.646C275.544 183.16 275.38 182.636 275.38 182.073H277.006C277.035 182.618 277.252 183.052 277.656 183.374C278.066 183.69 278.605 183.849 279.273 183.849C279.889 183.849 280.381 183.726 280.75 183.479C281.125 183.228 281.312 182.894 281.312 182.478ZM289.003 185.176C287.714 185.176 286.665 184.754 285.856 183.91C285.048 183.061 284.644 181.927 284.644 180.509V180.21C284.644 179.267 284.822 178.426 285.18 177.688C285.543 176.943 286.047 176.363 286.691 175.947C287.342 175.525 288.045 175.314 288.801 175.314C290.037 175.314 290.998 175.722 291.684 176.536C292.369 177.351 292.712 178.517 292.712 180.034V180.711H286.27C286.293 181.648 286.565 182.407 287.087 182.987C287.614 183.562 288.282 183.849 289.091 183.849C289.665 183.849 290.151 183.731 290.55 183.497C290.948 183.263 291.297 182.952 291.596 182.565L292.589 183.339C291.792 184.563 290.597 185.176 289.003 185.176ZM288.801 176.65C288.145 176.65 287.594 176.891 287.148 177.371C286.703 177.846 286.428 178.514 286.322 179.375H291.086V179.252C291.039 178.426 290.816 177.787 290.418 177.336C290.02 176.879 289.48 176.65 288.801 176.65ZM300.139 182.478C300.139 182.038 299.972 181.698 299.638 181.458C299.31 181.212 298.732 181.001 297.906 180.825C297.086 180.649 296.433 180.438 295.946 180.192C295.466 179.946 295.108 179.653 294.874 179.313C294.646 178.974 294.531 178.569 294.531 178.101C294.531 177.321 294.859 176.662 295.516 176.123C296.178 175.584 297.021 175.314 298.047 175.314C299.125 175.314 299.998 175.593 300.666 176.149C301.34 176.706 301.677 177.418 301.677 178.285H300.042C300.042 177.84 299.852 177.456 299.471 177.134C299.096 176.812 298.621 176.65 298.047 176.65C297.455 176.65 296.992 176.779 296.658 177.037C296.324 177.295 296.157 177.632 296.157 178.048C296.157 178.44 296.312 178.736 296.623 178.936C296.934 179.135 297.493 179.325 298.302 179.507C299.116 179.688 299.775 179.905 300.279 180.157C300.783 180.409 301.155 180.714 301.396 181.071C301.642 181.423 301.765 181.854 301.765 182.363C301.765 183.213 301.425 183.896 300.745 184.411C300.065 184.921 299.184 185.176 298.1 185.176C297.338 185.176 296.664 185.041 296.078 184.771C295.492 184.502 295.032 184.127 294.698 183.646C294.37 183.16 294.206 182.636 294.206 182.073H295.832C295.861 182.618 296.078 183.052 296.482 183.374C296.893 183.69 297.432 183.849 298.1 183.849C298.715 183.849 299.207 183.726 299.576 183.479C299.951 183.228 300.139 182.894 300.139 182.478Z" fill="white"/>
<path d="M121.329 243.015C121.329 244.269 121.118 245.364 120.696 246.302C120.274 247.233 119.677 247.945 118.903 248.438C118.13 248.93 117.228 249.176 116.196 249.176C115.188 249.176 114.295 248.93 113.516 248.438C112.736 247.939 112.13 247.233 111.696 246.319C111.269 245.399 111.049 244.336 111.037 243.129V242.206C111.037 240.976 111.251 239.889 111.679 238.945C112.106 238.002 112.71 237.281 113.489 236.783C114.274 236.279 115.171 236.027 116.179 236.027C117.204 236.027 118.106 236.276 118.886 236.774C119.671 237.267 120.274 237.984 120.696 238.928C121.118 239.865 121.329 240.958 121.329 242.206V243.015ZM119.65 242.188C119.65 240.671 119.346 239.508 118.736 238.699C118.127 237.885 117.274 237.478 116.179 237.478C115.112 237.478 114.271 237.885 113.656 238.699C113.047 239.508 112.733 240.633 112.716 242.074V243.015C112.716 244.485 113.023 245.643 113.639 246.486C114.26 247.324 115.112 247.743 116.196 247.743C117.286 247.743 118.13 247.348 118.728 246.557C119.325 245.76 119.633 244.62 119.65 243.138V242.188ZM123.544 243.806C123.544 242.481 123.72 241.21 124.071 239.991C124.429 238.772 124.959 237.665 125.662 236.669C126.365 235.673 127.095 234.97 127.851 234.56L128.185 235.632C127.329 236.288 126.626 237.29 126.075 238.638C125.53 239.985 125.231 241.494 125.179 243.164L125.17 243.911C125.17 246.173 125.583 248.136 126.409 249.8C126.907 250.796 127.499 251.575 128.185 252.138L127.851 253.131C127.071 252.697 126.327 251.971 125.618 250.951C124.235 248.959 123.544 246.577 123.544 243.806ZM131.296 239.49L131.349 240.686C132.075 239.771 133.024 239.314 134.196 239.314C136.206 239.314 137.22 240.448 137.237 242.716V249H135.611V242.707C135.605 242.021 135.447 241.515 135.137 241.187C134.832 240.858 134.354 240.694 133.704 240.694C133.177 240.694 132.714 240.835 132.315 241.116C131.917 241.397 131.606 241.767 131.384 242.224V249H129.758V239.49H131.296ZM143.442 243.894C143.442 245.2 143.27 246.454 142.924 247.655C142.584 248.851 142.06 249.955 141.351 250.969C140.647 251.982 139.909 252.703 139.136 253.131L138.793 252.138C139.695 251.446 140.419 250.374 140.964 248.921C141.515 247.462 141.796 245.845 141.808 244.069V243.788C141.808 242.558 141.679 241.415 141.421 240.36C141.163 239.3 140.803 238.351 140.34 237.513C139.883 236.675 139.367 236.021 138.793 235.553L139.136 234.56C139.909 234.987 140.645 235.702 141.342 236.704C142.045 237.706 142.569 238.811 142.915 240.018C143.267 241.225 143.442 242.517 143.442 243.894Z" fill="white"/>
<path d="M256.329 243.015C256.329 244.269 256.118 245.364 255.696 246.302C255.274 247.233 254.677 247.945 253.903 248.438C253.13 248.93 252.228 249.176 251.196 249.176C250.188 249.176 249.295 248.93 248.516 248.438C247.736 247.939 247.13 247.233 246.696 246.319C246.269 245.399 246.049 244.336 246.037 243.129V242.206C246.037 240.976 246.251 239.889 246.679 238.945C247.106 238.002 247.71 237.281 248.489 236.783C249.274 236.279 250.171 236.027 251.179 236.027C252.204 236.027 253.106 236.276 253.886 236.774C254.671 237.267 255.274 237.984 255.696 238.928C256.118 239.865 256.329 240.958 256.329 242.206V243.015ZM254.65 242.188C254.65 240.671 254.346 239.508 253.736 238.699C253.127 237.885 252.274 237.478 251.179 237.478C250.112 237.478 249.271 237.885 248.656 238.699C248.047 239.508 247.733 240.633 247.716 242.074V243.015C247.716 244.485 248.023 245.643 248.639 246.486C249.26 247.324 250.112 247.743 251.196 247.743C252.286 247.743 253.13 247.348 253.728 246.557C254.325 245.76 254.633 244.62 254.65 243.138V242.188ZM258.544 243.806C258.544 242.481 258.72 241.21 259.071 239.991C259.429 238.772 259.959 237.665 260.662 236.669C261.365 235.673 262.095 234.97 262.851 234.56L263.185 235.632C262.329 236.288 261.626 237.29 261.075 238.638C260.53 239.985 260.231 241.494 260.179 243.164L260.17 243.911C260.17 246.173 260.583 248.136 261.409 249.8C261.907 250.796 262.499 251.575 263.185 252.138L262.851 253.131C262.071 252.697 261.327 251.971 260.618 250.951C259.235 248.959 258.544 246.577 258.544 243.806ZM266.524 249H264.898V235.5H266.524V249ZM268.704 244.157C268.704 243.226 268.886 242.388 269.249 241.644C269.618 240.899 270.128 240.325 270.778 239.921C271.435 239.517 272.182 239.314 273.02 239.314C274.314 239.314 275.36 239.763 276.157 240.659C276.96 241.556 277.361 242.748 277.361 244.236V244.351C277.361 245.276 277.183 246.108 276.825 246.847C276.474 247.579 275.967 248.15 275.305 248.561C274.648 248.971 273.893 249.176 273.037 249.176C271.748 249.176 270.702 248.728 269.899 247.831C269.103 246.935 268.704 245.748 268.704 244.271V244.157ZM270.339 244.351C270.339 245.405 270.582 246.252 271.068 246.891C271.561 247.529 272.217 247.849 273.037 247.849C273.863 247.849 274.52 247.526 275.006 246.882C275.492 246.231 275.735 245.323 275.735 244.157C275.735 243.114 275.486 242.271 274.988 241.626C274.496 240.976 273.84 240.65 273.02 240.65C272.217 240.65 271.569 240.97 271.077 241.608C270.585 242.247 270.339 243.161 270.339 244.351ZM279.014 244.166C279.014 242.684 279.356 241.506 280.042 240.633C280.728 239.754 281.636 239.314 282.767 239.314C283.927 239.314 284.832 239.725 285.482 240.545L285.562 239.49H287.047V248.771C287.047 250.002 286.681 250.972 285.948 251.681C285.222 252.39 284.243 252.744 283.013 252.744C282.327 252.744 281.656 252.598 281 252.305C280.344 252.012 279.843 251.61 279.497 251.101L280.341 250.125C281.038 250.986 281.891 251.417 282.898 251.417C283.689 251.417 284.305 251.194 284.744 250.749C285.189 250.304 285.412 249.677 285.412 248.868V248.051C284.762 248.801 283.874 249.176 282.749 249.176C281.636 249.176 280.733 248.728 280.042 247.831C279.356 246.935 279.014 245.713 279.014 244.166ZM280.648 244.351C280.648 245.423 280.868 246.267 281.308 246.882C281.747 247.491 282.362 247.796 283.153 247.796C284.179 247.796 284.932 247.33 285.412 246.398V242.057C284.914 241.148 284.167 240.694 283.171 240.694C282.38 240.694 281.762 241.002 281.316 241.617C280.871 242.232 280.648 243.144 280.648 244.351ZM295.511 239.49L295.563 240.686C296.29 239.771 297.239 239.314 298.411 239.314C300.421 239.314 301.435 240.448 301.452 242.716V249H299.826V242.707C299.82 242.021 299.662 241.515 299.352 241.187C299.047 240.858 298.569 240.694 297.919 240.694C297.392 240.694 296.929 240.835 296.53 241.116C296.132 241.397 295.821 241.767 295.599 242.224V249H293.973V239.49H295.511ZM307.657 243.894C307.657 245.2 307.484 246.454 307.139 247.655C306.799 248.851 306.274 249.955 305.565 250.969C304.862 251.982 304.124 252.703 303.351 253.131L303.008 252.138C303.91 251.446 304.634 250.374 305.179 248.921C305.729 247.462 306.011 245.845 306.022 244.069V243.788C306.022 242.558 305.894 241.415 305.636 240.36C305.378 239.3 305.018 238.351 304.555 237.513C304.098 236.675 303.582 236.021 303.008 235.553L303.351 234.56C304.124 234.987 304.859 235.702 305.557 236.704C306.26 237.706 306.784 238.811 307.13 240.018C307.481 241.225 307.657 242.517 307.657 243.894Z" fill="white"/>
</svg>
